<svg width="375" height="306" viewBox="0 0 375 306" fill="none" xmlns="http://www.w3.org/2000/svg">
<path d="M107.688 111.304C107.688 111.304 90.0066 108.949 86.4541 123.727C82.9016 138.506 82.3941 158.989 68.1841 163.089C53.9741 167.19 46.1079 138.729 46.1079 138.729C46.1079 138.729 42.8091 130.751 39.2566 129.665C35.7041 128.579 33.1666 136.445 39.2566 141.267C39.2566 141.267 44.3824 177.553 71.6351 176.284C98.8879 175.015 107.688 137.633 107.688 111.304Z" fill="#F4A28C"/>
<path opacity="0.08" d="M107.688 111.304C107.688 111.304 90.0066 108.949 86.4541 123.727C82.9016 138.506 82.3941 158.989 68.1841 163.089C53.9741 167.19 46.1079 138.729 46.1079 138.729C46.1079 138.729 42.8091 130.751 39.2566 129.665C35.7041 128.579 33.1666 136.445 39.2566 141.267C39.2566 141.267 44.3824 177.553 71.6351 176.284C98.8879 175.015 107.688 137.633 107.688 111.304Z" fill="black"/>
<path opacity="0.45" d="M196.054 288.005C282.617 288.005 352.79 278.598 352.79 266.995C352.79 255.391 282.617 245.984 196.054 245.984C109.491 245.984 39.3174 255.391 39.3174 266.995C39.3174 278.598 109.491 288.005 196.054 288.005Z" fill="#E6E6E6"/>
<path d="M276.828 56.3923H160.986V264.153H276.828V56.3923Z" fill="#C9C9C9"/>
<path d="M266.454 80.0723H170.567V226.283H266.454V80.0723Z" fill="white"/>
<path opacity="0.56" d="M219.257 256.347C225.518 256.347 230.594 251.271 230.594 245.01C230.594 238.748 225.518 233.672 219.257 233.672C212.995 233.672 207.919 238.748 207.919 245.01C207.919 251.271 212.995 256.347 219.257 256.347Z" fill="white"/>
<path opacity="0.12" d="M241.587 64.5123H209.107V69.2523H241.587V64.5123Z" fill="black"/>
<path d="M197.343 72.6831C200.263 72.6831 202.631 70.3155 202.631 67.3949C202.631 64.4743 200.263 62.1068 197.343 62.1068C194.422 62.1068 192.055 64.4743 192.055 67.3949C192.055 70.3155 194.422 72.6831 197.343 72.6831Z" fill="white"/>
<path d="M107.688 84.995C107.688 84.995 96.0257 98.7279 105.343 103.681C119.015 110.949 120.68 85.8273 120.68 85.8273L107.688 84.995Z" fill="#24285B"/>
<path d="M108.601 86.3551C108.601 86.3551 106.165 91.5215 105.749 95.3988C105.709 95.7744 105.743 96.1545 105.85 96.5167C105.958 96.879 106.136 97.2163 106.375 97.5091C106.614 97.8018 106.909 98.0442 107.242 98.2221C107.576 98.3999 107.941 98.5098 108.317 98.5453C109.52 98.7405 110.753 98.5848 111.869 98.097C112.985 97.6091 113.937 96.8097 114.61 95.7946L117.939 91.7346C118.519 90.8464 118.809 89.8002 118.769 88.7404C118.729 87.6805 118.361 86.6592 117.716 85.8172C115.503 82.5083 109.921 83.1376 108.601 86.3551Z" fill="#F4A28C"/>
<path d="M116.681 92.6481L118.021 111.304H107.688L110.784 98.0784L116.681 92.6481Z" fill="#F4A28C"/>
<path d="M107.231 89.6843L104.978 91.1966C104.848 91.2791 104.741 91.393 104.667 91.5279C104.593 91.6627 104.554 91.8141 104.554 91.968C104.554 92.1219 104.593 92.2734 104.667 92.4082C104.741 92.5431 104.848 92.657 104.978 92.7394L106.876 93.8864L107.231 89.6843Z" fill="#F4A28C"/>
<path opacity="0.31" d="M110.703 98.4539C111.948 98.2303 113.109 97.6725 114.062 96.8401C114.062 96.8401 114.732 100.9 109.809 102.24L110.703 98.4539Z" fill="#CE8172"/>
<path d="M113.311 92.4248C113.311 92.4248 114.113 90.3948 115.605 91.1053C117.097 91.8158 115.95 94.7999 113.747 94.3025L113.311 92.4248Z" fill="#F4A28C"/>
<path d="M89.0321 217.524L80.293 257.24H85.368L102.379 217.524H89.0321Z" fill="#F4A28C"/>
<path d="M117.462 212.702L126.78 257.241H131.886L131.114 212.388L117.462 212.702Z" fill="#F4A28C"/>
<path d="M80.2931 257.241C80.2931 257.241 77.4714 260.813 73.858 260.641C70.2446 260.468 69.7269 265.564 75.5226 265.036C77.3278 264.88 79.117 264.575 80.8716 264.122C82.4921 263.743 84.1843 263.802 85.7741 264.295C86.0842 264.363 86.4078 264.337 86.7029 264.22C86.9979 264.102 87.2507 263.898 87.4285 263.635C89.0728 261.696 85.023 257.241 85.023 257.241H80.2931Z" fill="#68E1FD"/>
<path d="M131.51 257.241C131.51 257.241 134.332 260.813 137.945 260.641C141.558 260.468 142.086 265.564 136.28 265.036C134.475 264.88 132.686 264.575 130.931 264.122C129.311 263.743 127.619 263.802 126.029 264.295C125.719 264.363 125.395 264.337 125.1 264.22C124.805 264.102 124.552 263.898 124.374 263.635C122.73 261.696 126.78 257.241 126.78 257.241H131.51Z" fill="#68E1FD"/>
<path opacity="0.12" d="M246.499 133.238H192.024V194.605H246.499V133.238Z" fill="black"/>
<path d="M236.238 201.304H201.585V216.133H236.238V201.304Z" fill="#FFD200"/>
<path d="M232.959 148.209L225.854 146.007C225.255 151.681 219.429 151.62 219.429 151.62C219.429 151.62 213.593 151.681 212.994 146.007L205.889 148.209L197.262 157.425L203.352 164.53L208.427 160.602L209.746 178.416H229.031L230.351 160.602L235.426 164.53L241.516 157.425L232.959 148.209Z" fill="white"/>
<path opacity="0.15" d="M161.239 117.658V127.117C161.239 127.117 167.553 130.162 176.414 126.387C185.274 122.611 189.609 130.609 200.713 126.387C211.817 122.164 214.923 131.391 227.153 128.082C239.384 124.773 243.261 123.565 249.9 127.189C256.538 130.812 271.215 127.808 276.827 123.474V111.294L260.587 99.611H175.084L161.239 117.658Z" fill="#2C2C3A"/>
<path d="M170.638 80.0723L152.815 106.655H285.698L266.677 80.0723H170.638Z" fill="#24285B"/>
<path d="M162.305 117.221C167.552 117.221 171.795 112.491 171.795 106.655H152.815C152.815 112.491 157.068 117.221 162.305 117.221Z" fill="#24285B"/>
<path d="M181.296 117.221C186.533 117.221 190.786 112.491 190.786 106.655H171.775C171.775 112.491 176.048 117.221 181.296 117.221Z" fill="#FAFAFA"/>
<path d="M200.276 117.221C205.514 117.221 209.766 112.491 209.766 106.655H190.786C190.786 112.491 195.029 117.221 200.276 117.221Z" fill="#24285B"/>
<path d="M219.257 117.221C224.504 117.221 228.747 112.491 228.747 106.655H209.766C209.766 112.491 214.019 117.221 219.257 117.221Z" fill="#FAFAFA"/>
<path d="M238.247 117.221C243.485 117.221 247.738 112.491 247.738 106.655H228.747C228.747 112.491 233 117.221 238.247 117.221Z" fill="#24285B"/>
<path d="M257.228 117.221C262.465 117.221 266.718 112.491 266.718 106.655H247.738C247.738 112.491 251.96 117.221 257.228 117.221Z" fill="#FAFAFA"/>
<path d="M276.208 117.221C281.456 117.221 285.698 112.491 285.698 106.655H266.718C266.718 112.491 270.971 117.221 276.208 117.221Z" fill="#24285B"/>
<path d="M171.795 106.655L182.514 80.0723H194.897L190.786 106.655H171.795Z" fill="#FAFAFA"/>
<path d="M266.688 106.655L255.979 80.0723H243.596L247.707 106.655H266.688Z" fill="#FAFAFA"/>
<path d="M209.766 106.655L210.7 80.0723H227.61L228.747 106.655H209.766Z" fill="#FAFAFA"/>
<path d="M109.281 78.2046C108.449 78.5229 107.707 79.0397 107.119 79.7101C106.532 80.3805 106.118 81.1843 105.912 82.0515C105.567 83.6248 105.851 85.533 108.388 86.822C113.463 89.4001 115.666 87.6949 115.24 90.9835C114.813 94.2721 109.312 105.64 120.649 104.879C131.987 104.118 128.262 97.307 126.232 93.2673C124.202 89.2276 124.121 85.7664 123.36 83.1173C122.659 80.732 116.874 75.2002 109.281 78.2046Z" fill="#24285B"/>
<path d="M107.688 111.304H117.98C117.98 111.304 118.69 111.304 119.908 111.304C142.441 112.024 155.535 137.054 143.568 156.167C136.91 166.794 128.962 181.116 128.434 189.662L88.2709 187.632C88.2709 187.632 91.3159 161.577 83.876 146.687C83.9166 146.707 70.275 123.271 107.688 111.304Z" fill="#68E1FD"/>
<path d="M110.053 182.435C109.992 181.978 108.683 171.016 116.407 166.307L116.935 167.169C109.769 171.544 111.048 182.202 111.058 182.313L110.053 182.435Z" fill="white"/>
<path opacity="0.08" d="M129.713 119.393C129.713 119.393 112.854 125.818 120.68 152.888C124.74 166.987 88.5044 165.454 88.5044 165.454C88.5044 165.454 89.1641 176.274 88.7886 181.197L107.241 182.212L129.713 183.673L130.81 180.507L137.641 167.646L138.28 150.899L132.951 141.571L129.713 119.393Z" fill="black"/>
<path d="M122.842 182.435C122.781 181.978 121.34 170.671 129.246 166.398L129.713 167.169C122.558 171.544 123.826 182.202 123.847 182.313L122.842 182.435Z" fill="white"/>
<path d="M88.7886 181.156L129.805 183.318L140.757 224.862L81.4705 222.751L88.7886 181.156Z" fill="#24285B"/>
<path d="M125.968 126.935C125.894 125.104 126.396 123.297 127.405 121.767C128.414 120.238 129.878 119.065 131.591 118.413C133.303 117.761 135.176 117.663 136.947 118.135C138.717 118.606 140.295 119.621 141.457 121.038C147.268 128.031 150.345 136.896 150.115 145.986C149.78 170.346 146.502 196.615 94.0667 167.86L96.8883 160.156C96.8883 160.156 120.162 171.321 129.886 167.707C137.032 165.038 126.709 143.632 125.968 126.935Z" fill="#F4A28C"/>
<path d="M96.8882 160.156C96.8882 160.156 88.1389 155.994 84.424 160.156C80.7091 164.317 86.6164 168.022 94.0665 167.86L96.8882 160.156Z" fill="#F4A28C"/>
<path d="M106.166 180.425L136.017 183.298L137.204 219.706L97.9136 217.432L106.166 180.425Z" fill="#FFD200"/>
<path opacity="0.08" d="M106.166 180.425L136.017 183.298L137.204 219.706L97.9136 217.432L106.166 180.425Z" fill="black"/>
<path d="M112.732 181.055L140.046 183.744L144.685 220.081L105.404 217.818L112.732 181.055Z" fill="#FFD200"/>
<path d="M46.6468 114.467L34.6182 118.373L41.5148 139.612L53.5434 135.706L46.6468 114.467Z" fill="#FFD200"/>
<path d="M120.122 184.79L119.269 184.242C119.269 184.15 125.054 175.107 121.634 168.083C121.093 167.266 120.262 166.685 119.31 166.459C118.851 166.409 118.387 166.459 117.949 166.604C117.511 166.749 117.11 166.987 116.772 167.301L115.828 166.784C116.296 166.302 116.867 165.932 117.498 165.702C118.129 165.471 118.804 165.387 119.472 165.454C120.73 165.738 121.825 166.508 122.517 167.596C126.212 175.178 120.365 184.404 120.122 184.79Z" fill="white"/>
<path d="M131.977 185.48L131.124 184.932C131.185 184.841 136.91 175.797 133.499 168.773C132.954 167.957 132.12 167.377 131.165 167.149C130.642 167.096 130.115 167.16 129.62 167.335C129.125 167.511 128.675 167.794 128.303 168.164L127.694 167.464C128.16 166.984 128.73 166.616 129.359 166.387C129.988 166.159 130.661 166.076 131.327 166.144C131.952 166.281 132.543 166.541 133.065 166.909C133.588 167.276 134.032 167.745 134.372 168.286C138.077 175.848 132.19 185.084 131.977 185.48Z" fill="white"/>
<path d="M26.5488 76.54V96.84H39.6728L42.5351 104.919L45.9252 96.84H59.0491V76.54H26.5488Z" fill="#E6E6E6"/>
<path opacity="0.12" d="M41.1546 91.2271C41.0074 91.2219 40.863 91.1848 40.7315 91.1182C40.6001 91.0515 40.4847 90.9571 40.3934 90.8414L36.9221 86.416C36.7565 86.2034 36.6822 85.9336 36.7156 85.6662C36.7489 85.3987 36.8871 85.1555 37.0997 84.9899C37.3124 84.8244 37.5821 84.7501 37.8495 84.7834C38.117 84.8167 38.3602 84.9549 38.5258 85.1676L41.2257 88.6389L47.8739 81.4527C47.9649 81.3541 48.0745 81.2746 48.1964 81.2187C48.3182 81.1627 48.45 81.1315 48.584 81.1268C48.718 81.1221 48.8517 81.144 48.9772 81.1912C49.1027 81.2384 49.2176 81.31 49.3152 81.4019C49.5112 81.5853 49.6265 81.8388 49.636 82.107C49.6456 82.3752 49.5485 82.6363 49.366 82.8331L41.9057 90.8922C41.8108 90.9973 41.695 91.0814 41.5656 91.1391C41.4363 91.1968 41.2963 91.2268 41.1546 91.2271Z" fill="black"/>
<path opacity="0.52" d="M232.178 203.699H217.288V208.713H232.178V203.699Z" fill="white"/>
<path opacity="0.55" d="M308.546 226.293H276.827V242.706H308.546V226.293Z" fill="#E6E6E6"/>
<path d="M324.025 242.706H276.827V264.153H324.025V242.706Z" fill="#E6E6E6"/>
</svg>
