<svg width="431" height="329" viewBox="0 0 431 329" fill="none" xmlns="http://www.w3.org/2000/svg">
<path opacity="0.3" d="M201.244 253.17C295.756 253.17 372.373 249.085 372.373 244.045C372.373 239.006 295.756 234.921 201.244 234.921C106.732 234.921 30.1151 239.006 30.1151 244.045C30.1151 249.085 106.732 253.17 201.244 253.17Z" fill="#E6E6E6"/>
<path d="M200.067 142.586C200.067 142.586 205.872 137.511 208.796 141.571C211.719 145.631 207.852 148.29 202.777 148.564C197.702 148.838 200.067 142.586 200.067 142.586Z" fill="#F4A28C"/>
<path opacity="0.08" d="M200.067 142.586C200.067 142.586 205.872 137.511 208.796 141.571C211.719 145.631 207.852 148.29 202.777 148.564C197.702 148.838 200.067 142.586 200.067 142.586Z" fill="black"/>
<path d="M145.5 120.52C145.5 120.52 151.123 144.332 166.612 145.053C182.101 145.773 199.437 138.019 199.437 138.019L202.482 147.56L160.045 159.09C160.045 159.09 133.097 145.225 132.752 143.601C132.407 141.977 145.5 120.52 145.5 120.52Z" fill="#68E1FD"/>
<path opacity="0.08" d="M145.5 120.52C145.5 120.52 151.123 144.332 166.612 145.053C182.101 145.773 199.437 138.019 199.437 138.019L202.482 147.56L160.045 159.09C160.045 159.09 133.097 145.225 132.752 143.601C132.407 141.977 145.5 120.52 145.5 120.52Z" fill="black"/>
<path d="M313.097 179.085H271.695V202.745H313.097V179.085Z" fill="#C1C1C1"/>
<path d="M283.388 159.039H234.749V202.745H283.388V159.039Z" fill="#FFD200"/>
<path d="M208.796 147.539H219.514C221.14 147.538 222.712 148.12 223.945 149.18C225.178 150.24 225.99 151.707 226.233 153.315L233.775 202.745H312.163C314.082 202.744 315.945 202.098 317.453 200.911C318.961 199.723 320.025 198.064 320.476 196.198L332.189 147.925" stroke="#24285B" stroke-width="2.03" stroke-linecap="round" stroke-linejoin="round"/>
<path d="M142.882 234.819C142.882 234.819 146.048 237.357 149.144 235.834C152.24 234.312 154.777 236.687 152.585 239.062C150.393 241.437 141.481 242.208 141.481 242.208L138.04 236.829L142.882 234.819Z" fill="#68E1FD"/>
<path d="M61.4582 216.996C61.4582 216.996 57.3982 217.513 56.3832 220.822C55.3682 224.131 51.8563 224.283 51.6736 221.066C51.4909 217.848 57.1039 210.916 57.1039 210.916L63.3766 212.164L61.4582 216.996Z" fill="#68E1FD"/>
<path d="M126.926 66.0551L120.003 82.5387L129.636 87.9487L131.067 73.1601L126.926 66.0551Z" fill="#F4A28C"/>
<path opacity="0.31" d="M130.935 76.4183C129.69 75.7566 128.666 74.7437 127.992 73.5052C127.992 73.5052 127.271 77.0881 130.306 81.5338L130.935 76.4183Z" fill="#CE8172"/>
<path d="M135.634 65.2634C135.634 65.2634 136.649 71.2519 135.98 75.3525C135.918 75.7528 135.777 76.1368 135.566 76.4821C135.354 76.8273 135.075 77.1269 134.746 77.3632C134.418 77.5995 134.045 77.7678 133.65 77.8582C133.255 77.9487 132.846 77.9595 132.447 77.89C131.158 77.747 129.937 77.2353 128.93 76.4162C127.924 75.5972 127.175 74.5054 126.773 73.2718L124.52 68.1257C124.177 67.0499 124.176 65.8938 124.517 64.8174C124.859 63.741 125.527 62.7973 126.428 62.1169C129.646 59.346 135.188 61.579 135.634 65.2634Z" fill="#F4A28C"/>
<path d="M134.153 65.639C132.284 65.8518 130.398 65.8518 128.529 65.639C129.138 66.417 129.507 67.3558 129.59 68.3403C129.673 69.3247 129.466 70.3119 128.996 71.1809C128.55 72.0258 127.825 72.6899 126.944 73.06C126.063 73.4302 125.081 73.4835 124.165 73.2109L123.617 65.4258C123.498 64.3132 123.684 63.1893 124.154 62.174C124.624 61.1587 125.361 60.29 126.286 59.6606C127.079 59.1075 127.91 58.6123 128.773 58.1787C130.945 57.0927 134.345 58.3107 136.233 56.6359C136.423 56.4674 136.653 56.351 136.901 56.2982C137.149 56.2454 137.406 56.258 137.648 56.3348C137.889 56.4116 138.107 56.5499 138.279 56.7361C138.451 56.9224 138.571 57.1502 138.629 57.3972C139.177 59.7317 139.055 63.4872 135.969 65.0503C135.403 65.3525 134.788 65.5518 134.153 65.639V65.639Z" fill="#24285B"/>
<path d="M129.626 70.988C129.626 70.988 129.392 68.6535 127.646 68.958C125.901 69.2625 126.236 72.6526 128.661 72.7744L129.626 70.988Z" fill="#F4A28C"/>
<path d="M136.081 69.0696L137.969 71.2621C138.066 71.3905 138.131 71.5401 138.158 71.6985C138.186 71.857 138.176 72.0198 138.128 72.1734C138.081 72.3271 137.997 72.4672 137.885 72.5823C137.772 72.6973 137.634 72.7841 137.482 72.8353L135.208 73.4646L136.081 69.0696Z" fill="#F4A28C"/>
<path d="M135.624 90.1817C135.046 89.7452 134.488 89.2885 133.939 88.8114C130.641 85.9288 118.714 76.6923 106.595 81.7064C92.3041 87.6746 98.7392 95.5003 111.031 96.5153C145.967 99.4486 138.446 92.2624 135.624 90.1817Z" fill="#68E1FD"/>
<path opacity="0.44" d="M135.624 90.1817C135.046 89.7452 134.488 89.2885 133.939 88.8114C130.641 85.9288 118.714 76.6923 106.595 81.7064C92.3041 87.6746 98.7392 95.5003 111.031 96.5153C145.967 99.4486 138.446 92.2624 135.624 90.1817Z" fill="white"/>
<path d="M129.717 89.4001C116.522 84.4266 101.622 89.7046 93.7454 101.428C89.9798 107.031 86.6404 113.943 85.8487 121.505C83.8796 140.627 81.2 157.476 81.2 157.476L118.4 173.716C118.4 173.716 149.307 152.107 147.997 126.468C147.033 108.34 143.795 94.6882 129.717 89.4001Z" fill="#68E1FD"/>
<path opacity="0.08" d="M113.792 99.885C113.792 99.885 99.6527 115.658 105.895 143.591C112.137 171.524 95.8262 163.891 95.8262 163.891L118.369 173.757C118.369 173.757 129.605 164.693 132.417 161.13L135.228 157.567L113.792 99.885Z" fill="black"/>
<path d="M127.667 93.8864C127.667 93.8864 139.847 96.8401 141.308 112.156C142.77 127.473 149.205 152.3 167.475 148.605C185.745 144.91 200.97 142.444 200.97 142.444L203.924 152.3C203.924 152.3 152.727 182.12 127.677 157.233C102.627 132.345 105.885 88.9535 127.667 93.8864Z" fill="#68E1FD"/>
<path opacity="0.44" d="M127.667 93.8864C127.667 93.8864 139.847 96.8401 141.308 112.156C142.77 127.473 149.205 152.3 167.475 148.605C185.745 144.91 200.97 142.444 200.97 142.444L203.924 152.3C203.924 152.3 152.727 182.12 127.677 157.233C102.627 132.345 105.885 88.9535 127.667 93.8864Z" fill="white"/>
<path d="M81.2 157.476C81.2 157.476 75.039 169.057 81.2 173.716C87.3611 178.375 129.047 213.646 137.025 237.306L145.51 233.855C145.51 233.855 138.334 200.086 118.379 173.716L81.2 157.476Z" fill="#24285B"/>
<path d="M81.2 173.747C81.2 173.747 112.99 217.858 61.235 208.744V217.879C61.235 217.879 113.457 231.937 111.985 199.609C110.513 167.281 81.2 173.747 81.2 173.747Z" fill="#24285B"/>
<path d="M201.894 145.58C201.894 145.58 209.75 141.003 211.719 145.58C213.688 150.158 203.913 152.3 203.913 152.3L201.894 145.58Z" fill="#F4A28C"/>
<path d="M283.388 137.998H257.15V159.029H283.388V137.998Z" fill="#E6E6E6"/>
<path opacity="0.43" d="M313.097 149.508H282.444V179.085H313.097V149.508Z" fill="#E6E6E6"/>
<path d="M232.354 193.468L236.414 218.64C236.823 221.169 238.12 223.47 240.07 225.13C242.021 226.791 244.499 227.703 247.061 227.704H316.751" stroke="#24285B" stroke-width="2.03" stroke-linecap="round" stroke-linejoin="round"/>
<path d="M250.644 242.543C253.839 242.543 256.43 239.953 256.43 236.758C256.43 233.563 253.839 230.972 250.644 230.972C247.449 230.972 244.859 233.563 244.859 236.758C244.859 239.953 247.449 242.543 250.644 242.543Z" fill="#68E1FD"/>
<path d="M307.312 242.543C310.507 242.543 313.097 239.953 313.097 236.758C313.097 233.563 310.507 230.972 307.312 230.972C304.116 230.972 301.526 233.563 301.526 236.758C301.526 239.953 304.116 242.543 307.312 242.543Z" fill="#68E1FD"/>
<path opacity="0.61" d="M263.281 159.039H253.689V173.229H263.281V159.039Z" fill="white"/>
<path d="M363.76 259.24H98.24C98.1074 259.24 97.9802 259.187 97.8864 259.094C97.7927 259 97.74 258.873 97.74 258.74C97.74 258.607 97.7927 258.48 97.8864 258.386C97.9802 258.293 98.1074 258.24 98.24 258.24H363.76C363.893 258.24 364.02 258.293 364.114 258.386C364.207 258.48 364.26 258.607 364.26 258.74C364.26 258.873 364.207 259 364.114 259.094C364.02 259.187 363.893 259.24 363.76 259.24Z" fill="#D1D3D4"/>
<path d="M161.81 276.05L160.81 284.32C160.81 284.32 168.57 284.7 168.7 284.32C168.83 283.94 171.37 273.6 171.37 273.6L161.81 276.05Z" fill="white"/>
<path d="M166.38 285C165.16 285 163.38 284.95 160.77 284.82C160.701 284.817 160.633 284.799 160.571 284.768C160.509 284.737 160.454 284.693 160.41 284.64C160.366 284.588 160.332 284.527 160.311 284.462C160.291 284.397 160.283 284.328 160.29 284.26L161.29 275.99C161.305 275.889 161.349 275.795 161.417 275.719C161.484 275.643 161.572 275.588 161.67 275.56L171.21 273.12C171.293 273.098 171.38 273.098 171.463 273.121C171.545 273.144 171.62 273.188 171.68 273.25C171.743 273.309 171.788 273.384 171.813 273.466C171.838 273.549 171.84 273.636 171.82 273.72C171.56 274.78 169.26 284.09 169.14 284.48C169.02 284.87 169 285 166.38 285ZM161.38 283.85C164.38 283.98 167.45 284.04 168.3 283.93C168.59 282.81 169.79 277.93 170.7 274.29L162.29 276.45L161.38 283.85Z" fill="#231F20"/>
<path d="M119.83 263.47L115.41 270.53C115.41 270.53 122.28 274.16 122.56 273.87C122.84 273.58 129.56 265.29 129.56 265.29L119.83 263.47Z" fill="white"/>
<path d="M122.56 274.38C122 274.38 120.47 273.77 115.18 270.97C115.118 270.94 115.063 270.897 115.02 270.843C114.976 270.79 114.946 270.727 114.93 270.66C114.91 270.595 114.905 270.526 114.915 270.458C114.925 270.39 114.951 270.326 114.99 270.27L119.41 263.2C119.465 263.116 119.544 263.051 119.637 263.011C119.729 262.972 119.831 262.961 119.93 262.98L129.61 264.8C129.696 264.815 129.777 264.852 129.844 264.908C129.911 264.964 129.962 265.037 129.993 265.119C130.023 265.201 130.031 265.289 130.017 265.375C130.002 265.462 129.965 265.542 129.91 265.61C129.22 266.46 123.2 273.92 122.91 274.21C122.871 274.266 122.818 274.311 122.757 274.34C122.696 274.37 122.628 274.384 122.56 274.38V274.38ZM116.12 270.38C118.74 271.75 121.54 273.13 122.35 273.38C123.09 272.48 126.22 268.61 128.6 265.66L120.08 264L116.12 270.38Z" fill="#231F20"/>
<path d="M140.69 171.19C142.6 172.34 159.49 211.65 161.69 215.29C163.89 218.93 159.62 277.84 159.62 277.84H172C172 277.84 185.74 230.56 185.74 218.44C185.74 206.32 169.74 166.7 169.74 166.7L140.74 167.7" fill="#231F20"/>
<path d="M172 278.34H159.66C159.591 278.34 159.522 278.326 159.459 278.298C159.396 278.271 159.339 278.23 159.292 278.18C159.245 278.129 159.209 278.069 159.186 278.004C159.163 277.938 159.154 277.869 159.16 277.8C160.89 254.18 162.89 218.11 161.31 215.55C160.4 214.08 157.23 207.07 153.55 198.95C148.49 187.79 141.55 172.5 140.42 171.61C140.31 171.54 140.231 171.43 140.202 171.303C140.172 171.176 140.193 171.042 140.26 170.93C140.332 170.819 140.444 170.741 140.573 170.711C140.701 170.681 140.837 170.702 140.95 170.77C142.04 171.43 145.95 179.87 154.46 198.54C158.12 206.63 161.28 213.61 162.15 215.02C164.36 218.6 160.78 269.23 160.15 277.34H171.57C172.84 272.94 185.19 229.8 185.19 218.44C185.19 207.08 170.89 171 169.37 167.21L140.71 168.21C140.577 168.21 140.45 168.157 140.356 168.064C140.263 167.97 140.21 167.843 140.21 167.71C140.21 167.577 140.263 167.45 140.356 167.356C140.45 167.263 140.577 167.21 140.71 167.21L169.71 166.21C169.812 166.205 169.914 166.232 170 166.288C170.086 166.343 170.152 166.425 170.19 166.52C170.85 168.14 186.26 206.36 186.26 218.44C186.26 230.52 173 276.05 172.47 278C172.435 278.098 172.372 278.183 172.288 278.243C172.204 278.304 172.104 278.338 172 278.34Z" fill="#231F20"/>
<path d="M136.21 174.34L138 215.68L116.26 264L127.08 270.57C127.63 271.99 155.47 231.94 158.58 219.75C160.73 211.36 158.84 171.18 158.84 171.18L136.21 174.34Z" fill="#231F20"/>
<path d="M127.15 271.11C127.034 271.109 126.922 271.07 126.83 271V271L116 264.44C115.896 264.377 115.818 264.279 115.781 264.163C115.744 264.047 115.751 263.921 115.8 263.81L137.45 215.58L135.71 174.36C135.708 174.238 135.751 174.119 135.83 174.025C135.909 173.931 136.019 173.869 136.14 173.85L158.77 170.7C158.839 170.69 158.909 170.695 158.976 170.714C159.043 170.732 159.105 170.765 159.159 170.809C159.212 170.853 159.256 170.908 159.287 170.97C159.319 171.033 159.337 171.101 159.34 171.17C159.42 172.81 161.2 211.52 159.06 219.89C156.06 231.58 129.3 270.99 127.17 271.11H127.15ZM116.89 263.82L127.14 270C130.14 267.43 155.14 231.21 158.14 219.61C160.14 211.91 158.62 176.61 158.41 171.73L136.77 174.73L138.49 215.61C138.51 215.685 138.51 215.765 138.49 215.84L116.89 263.82Z" fill="#231F20"/>
<path d="M160.79 284.32L159.65 290.68C159.65 290.68 180.13 291.95 179.5 290.68C178.87 289.41 168.68 284.32 168.68 284.32H160.79Z" fill="#231F20"/>
<path d="M173.9 291.75C169.9 291.75 164.48 291.48 159.62 291.18C159.549 291.176 159.481 291.156 159.418 291.123C159.356 291.09 159.301 291.044 159.257 290.988C159.214 290.933 159.183 290.868 159.166 290.8C159.149 290.731 159.147 290.66 159.16 290.59L160.3 284.23C160.321 284.115 160.381 284.011 160.471 283.937C160.56 283.862 160.673 283.82 160.79 283.82H168.68C168.757 283.82 168.833 283.841 168.9 283.88C171.33 285.09 179.28 289.14 179.9 290.46C179.954 290.554 179.983 290.661 179.983 290.77C179.983 290.879 179.954 290.986 179.9 291.08C179.58 291.57 177.22 291.75 173.9 291.75ZM160.24 290.22C168.09 290.69 176.62 290.95 178.73 290.57C175.48 288.415 172.082 286.493 168.56 284.82H161.21L160.24 290.22Z" fill="#231F20"/>
<path d="M115.41 270.53L114.81 271.24C113.73 272.54 111.61 275.24 112.18 275.93C112.95 276.82 129.93 286.88 129.52 286.24C129.11 285.6 122.52 273.87 122.52 273.87" fill="#231F20"/>
<path d="M129.59 286.75C129.12 286.75 127.68 286.04 120.77 281.93C118.77 280.77 112.37 276.93 111.77 276.26C111.49 275.94 110.85 275.19 114.39 270.92C114.75 270.48 115 270.2 115 270.2C115.046 270.153 115.1 270.116 115.16 270.091C115.22 270.066 115.285 270.053 115.35 270.053C115.415 270.053 115.48 270.066 115.54 270.091C115.6 270.116 115.654 270.153 115.7 270.2C115.748 270.245 115.786 270.299 115.812 270.359C115.838 270.419 115.852 270.484 115.852 270.55C115.852 270.616 115.838 270.68 115.812 270.741C115.786 270.801 115.748 270.855 115.7 270.9C115.7 270.9 115.46 271.17 115.11 271.59C112.91 274.25 112.45 275.44 112.51 275.69C113.12 276.33 124.29 283.04 128.23 285.18C126.43 282.02 122.23 274.54 122.04 274.18C122.009 274.123 121.989 274.06 121.982 273.996C121.975 273.931 121.981 273.865 121.999 273.803C122.018 273.741 122.049 273.683 122.09 273.632C122.132 273.582 122.182 273.54 122.24 273.51C122.296 273.477 122.358 273.455 122.423 273.447C122.487 273.438 122.553 273.443 122.616 273.461C122.679 273.479 122.737 273.509 122.787 273.55C122.838 273.591 122.88 273.642 122.91 273.7C125.18 277.75 129.54 285.55 129.91 286.04C129.978 286.151 130.003 286.284 129.981 286.413C129.959 286.541 129.891 286.658 129.79 286.74C129.726 286.762 129.656 286.765 129.59 286.75V286.75Z" fill="#231F20"/>
<path d="M342.894 181.081L309.494 181.285L309.814 233.684L343.214 233.48L342.894 181.081Z" fill="#E6E7E8"/>
<path d="M309.82 234.13C309.7 234.125 309.585 234.075 309.5 233.99C309.415 233.905 309.365 233.79 309.36 233.67L309 181.28C308.999 181.219 309.01 181.159 309.032 181.102C309.055 181.046 309.089 180.995 309.132 180.952C309.175 180.909 309.226 180.875 309.282 180.852C309.339 180.83 309.399 180.819 309.46 180.82L342.85 180.61C342.911 180.606 342.973 180.615 343.03 180.637C343.087 180.66 343.138 180.695 343.18 180.74C343.263 180.83 343.309 180.948 343.31 181.07L343.63 233.46C343.631 233.52 343.621 233.58 343.599 233.635C343.577 233.691 343.544 233.742 343.502 233.785C343.46 233.828 343.41 233.862 343.355 233.885C343.299 233.908 343.24 233.92 343.18 233.92L309.78 234.13H309.82ZM309.96 181.73L310.27 233.21L342.76 233.01L342.44 181.53L309.96 181.73Z" fill="#231F20"/>
<path d="M302.175 191.761L255.478 198.631L261.378 238.73L308.075 231.859L302.175 191.761Z" fill="#FDFFFF"/>
<path d="M261.39 239.16C261.28 239.161 261.174 239.122 261.091 239.05C261.008 238.978 260.955 238.879 260.94 238.77L255.04 198.67C255.03 198.612 255.032 198.553 255.046 198.497C255.06 198.44 255.085 198.387 255.12 198.34C255.154 198.29 255.199 198.248 255.25 198.217C255.302 198.186 255.36 198.167 255.42 198.16L302.11 191.28C302.231 191.263 302.353 191.294 302.451 191.367C302.548 191.441 302.613 191.549 302.63 191.67L308.54 231.77C308.55 231.89 308.519 232.011 308.45 232.11C308.376 232.205 308.269 232.269 308.15 232.29L261.46 239.16H261.39ZM256 199L261.77 238.2L307.55 231.46L301.79 192.26L256 199Z" fill="#231F20"/>
<path d="M287.566 165.393L251.344 172.993L256.505 197.588L292.726 189.988L287.566 165.393Z" fill="#E6E7E8"/>
<path d="M256.5 198.06C256.394 198.058 256.292 198.02 256.211 197.953C256.129 197.886 256.072 197.793 256.05 197.69L250.89 173.1C250.879 173.042 250.879 172.981 250.891 172.923C250.903 172.865 250.926 172.809 250.96 172.76C250.991 172.71 251.032 172.666 251.08 172.631C251.128 172.597 251.182 172.573 251.24 172.56L287.46 164.96C287.581 164.939 287.706 164.963 287.81 165.03C287.86 165.062 287.904 165.104 287.936 165.154C287.969 165.204 287.991 165.261 288 165.32L293.16 189.91C293.173 189.968 293.175 190.029 293.164 190.088C293.153 190.147 293.131 190.203 293.099 190.254C293.066 190.304 293.024 190.347 292.974 190.381C292.925 190.415 292.869 190.438 292.81 190.45L256.59 198.05L256.5 198.06ZM251.88 173.36L256.88 197.06L292.2 189.65L287.2 165.95L251.88 173.36Z" fill="#231F20"/>
<path d="M319.758 155.92L292.469 160.052L295.479 179.925L322.768 175.793L319.758 155.92Z" fill="#231F20"/>
<path d="M295.48 180.37C295.382 180.372 295.287 180.341 295.21 180.28C295.16 180.245 295.117 180.201 295.085 180.149C295.052 180.098 295.03 180.04 295.02 179.98L292.02 160.11C292.01 160.051 292.012 159.99 292.026 159.932C292.04 159.873 292.065 159.818 292.1 159.77C292.136 159.721 292.181 159.681 292.232 159.65C292.283 159.619 292.341 159.599 292.4 159.59L319.68 155.46C319.739 155.45 319.8 155.452 319.858 155.466C319.917 155.48 319.972 155.505 320.02 155.54C320.068 155.576 320.109 155.621 320.14 155.672C320.171 155.723 320.191 155.781 320.2 155.84L323.2 175.71C323.21 175.769 323.208 175.83 323.194 175.888C323.181 175.946 323.155 176.002 323.12 176.05C323.086 176.1 323.041 176.142 322.99 176.173C322.938 176.204 322.88 176.223 322.82 176.23L295.53 180.37H295.48ZM293 160.43L295.87 179.43L322.25 175.43L319.38 156.43L293 160.43Z" fill="#231F20"/>
<path d="M291.02 144.282L266.126 156.656L271.823 168.118L296.718 155.744L291.02 144.282Z" fill="#FDFFFF"/>
<path d="M271.82 168.59C271.735 168.59 271.652 168.567 271.58 168.523C271.507 168.479 271.449 168.415 271.41 168.34L265.72 156.87C265.676 156.761 265.676 156.639 265.72 156.53C265.762 156.415 265.843 156.32 265.95 156.26L290.85 143.89C290.962 143.845 291.088 143.845 291.2 143.89C291.256 143.909 291.308 143.939 291.353 143.979C291.398 144.018 291.434 144.066 291.46 144.12L297.16 155.58C297.205 155.692 297.205 155.818 297.16 155.93C297.141 155.986 297.111 156.038 297.071 156.083C297.032 156.128 296.984 156.164 296.93 156.19L272 168.54C271.943 168.567 271.882 168.584 271.82 168.59V168.59ZM266.74 156.88L272 167.52L296.07 155.52L290.78 144.87L266.74 156.88Z" fill="#231F20"/>
<path d="M338.001 159.328L325.157 164.095L330.62 178.814L343.464 174.047L338.001 159.328Z" fill="white"/>
<path d="M330.62 179.28C330.558 179.295 330.492 179.295 330.43 179.28C330.375 179.256 330.326 179.222 330.285 179.179C330.244 179.136 330.211 179.085 330.19 179.03L324.73 164.31C324.688 164.196 324.693 164.07 324.743 163.959C324.794 163.849 324.886 163.763 325 163.72L337.84 158.96C337.954 158.918 338.08 158.923 338.191 158.973C338.301 159.024 338.387 159.116 338.43 159.23L343.89 173.94C343.912 173.996 343.923 174.057 343.921 174.117C343.92 174.178 343.906 174.237 343.881 174.292C343.855 174.348 343.819 174.397 343.775 174.438C343.73 174.479 343.677 174.51 343.62 174.53L330.78 179.3L330.62 179.28ZM325.74 164.38L330.89 178.24L342.89 173.79L337.75 159.93L325.74 164.38Z" fill="#231F20"/>
<path d="M302.876 176.161L288.199 178.062L290.1 192.739L304.777 190.838L302.876 176.161Z" fill="#E6E7E8"/>
<path d="M290.1 193.19C289.989 193.189 289.883 193.147 289.8 193.074C289.718 193 289.664 192.9 289.65 192.79L287.75 178.12C287.734 177.999 287.766 177.877 287.84 177.78C287.874 177.731 287.919 177.69 287.971 177.661C288.023 177.632 288.081 177.614 288.14 177.61L302.82 175.7C302.941 175.686 303.062 175.72 303.157 175.795C303.253 175.87 303.315 175.98 303.33 176.1L305.23 190.78C305.238 190.839 305.235 190.899 305.22 190.957C305.205 191.015 305.178 191.069 305.142 191.117C305.106 191.164 305.06 191.204 305.008 191.234C304.957 191.264 304.899 191.283 304.84 191.29L290.16 193.19H290.1ZM288.71 178.45L290.5 192.22L304.27 190.44L302.48 176.67L288.71 178.45Z" fill="#231F20"/>
<path d="M263.33 291.55C267.544 291.55 270.96 288.134 270.96 283.92C270.96 279.706 267.544 276.29 263.33 276.29C259.116 276.29 255.7 279.706 255.7 283.92C255.7 288.134 259.116 291.55 263.33 291.55Z" fill="#231F20"/>
<path d="M263.33 292.05C261.722 292.05 260.15 291.573 258.813 290.68C257.476 289.787 256.434 288.517 255.819 287.031C255.204 285.546 255.043 283.911 255.356 282.334C255.67 280.757 256.444 279.308 257.581 278.171C258.718 277.034 260.167 276.26 261.744 275.946C263.321 275.633 264.956 275.794 266.441 276.409C267.927 277.024 269.196 278.066 270.09 279.403C270.983 280.74 271.46 282.312 271.46 283.92C271.457 286.075 270.6 288.142 269.076 289.666C267.552 291.19 265.485 292.047 263.33 292.05V292.05ZM263.33 276.79C261.92 276.79 260.541 277.208 259.369 277.992C258.196 278.775 257.282 279.889 256.743 281.191C256.203 282.494 256.062 283.928 256.337 285.311C256.612 286.694 257.291 287.965 258.288 288.962C259.285 289.959 260.556 290.638 261.939 290.913C263.322 291.188 264.756 291.047 266.059 290.507C267.361 289.968 268.475 289.054 269.258 287.881C270.042 286.709 270.46 285.33 270.46 283.92C270.457 282.03 269.705 280.218 268.369 278.881C267.032 277.545 265.22 276.793 263.33 276.79V276.79Z" fill="#231F20"/>
<path d="M261.64 272.71V282.56C261.64 285.11 264.56 285.26 265.89 282.56C267.22 279.86 270.06 272.37 270.06 272.37L261.64 272.71Z" fill="#E6E7E8"/>
<path d="M263.29 285C263.131 285.021 262.969 285.021 262.81 285C262.304 284.859 261.864 284.544 261.568 284.11C261.272 283.677 261.138 283.153 261.19 282.63V272.78C261.19 272.663 261.234 272.55 261.314 272.465C261.394 272.379 261.503 272.328 261.62 272.32L270.05 271.99C270.125 271.986 270.199 272 270.267 272.032C270.335 272.063 270.395 272.111 270.44 272.17C270.485 272.231 270.513 272.303 270.522 272.378C270.53 272.454 270.519 272.53 270.49 272.6C270.38 272.91 267.62 280.15 266.3 282.84C266.047 283.443 265.631 283.964 265.1 284.345C264.569 284.726 263.942 284.953 263.29 285V285ZM262.1 273.17V282.58C262.1 283.39 262.43 283.92 263.02 284.06C263.61 284.2 264.79 283.77 265.48 282.38C266.55 280.2 268.67 274.75 269.39 272.88L262.1 273.17Z" fill="#231F20"/>
<path d="M327.42 291.55C331.634 291.55 335.05 288.134 335.05 283.92C335.05 279.706 331.634 276.29 327.42 276.29C323.206 276.29 319.79 279.706 319.79 283.92C319.79 288.134 323.206 291.55 327.42 291.55Z" fill="#231F20"/>
<path d="M327.42 292.05C325.812 292.048 324.242 291.57 322.906 290.675C321.57 289.78 320.53 288.51 319.916 287.024C319.302 285.539 319.143 283.904 319.457 282.328C319.772 280.751 320.547 279.304 321.685 278.168C322.822 277.032 324.271 276.258 325.848 275.945C327.424 275.633 329.059 275.794 330.544 276.41C332.029 277.025 333.298 278.068 334.191 279.404C335.083 280.741 335.56 282.312 335.56 283.92C335.557 286.077 334.699 288.145 333.172 289.669C331.646 291.194 329.577 292.05 327.42 292.05V292.05ZM327.42 276.79C326.01 276.792 324.633 277.212 323.462 277.996C322.29 278.781 321.378 279.895 320.84 281.198C320.302 282.501 320.162 283.935 320.438 285.317C320.714 286.7 321.394 287.969 322.392 288.965C323.389 289.961 324.66 290.639 326.043 290.914C327.426 291.188 328.859 291.046 330.161 290.506C331.463 289.966 332.576 289.052 333.359 287.88C334.142 286.708 334.56 285.33 334.56 283.92C334.557 282.028 333.804 280.215 332.465 278.878C331.126 277.541 329.312 276.79 327.42 276.79Z" fill="#231F20"/>
<path d="M325.74 272.71V282.56C325.74 285.11 328.66 285.26 329.98 282.56C331.3 279.86 334.16 272.37 334.16 272.37L325.74 272.71Z" fill="#E6E7E8"/>
<path d="M327.38 285C327.224 285.02 327.066 285.02 326.91 285C326.402 284.861 325.96 284.547 325.662 284.113C325.363 283.679 325.228 283.154 325.28 282.63V272.78C325.282 272.662 325.329 272.549 325.41 272.464C325.492 272.379 325.602 272.328 325.72 272.32L334.14 271.99C334.215 271.985 334.29 271.999 334.358 272.03C334.426 272.062 334.485 272.11 334.53 272.17C334.574 272.232 334.602 272.303 334.613 272.378C334.623 272.453 334.615 272.529 334.59 272.6C334.47 272.91 331.71 280.15 330.39 282.84C330.139 283.444 329.724 283.966 329.192 284.348C328.66 284.73 328.033 284.955 327.38 285ZM326.2 273.17V282.58C326.2 283.39 326.53 283.92 327.11 284.06C327.69 284.2 328.89 283.77 329.57 282.38C330.65 280.2 332.76 274.75 333.49 272.88L326.2 273.17Z" fill="#231F20"/>
<path d="M352.9 192L234.78 185.76C234.646 185.752 234.521 185.692 234.432 185.593C234.342 185.494 234.295 185.364 234.3 185.23C234.304 185.164 234.321 185.1 234.349 185.041C234.378 184.982 234.418 184.929 234.467 184.885C234.517 184.841 234.574 184.808 234.636 184.786C234.698 184.765 234.764 184.756 234.83 184.76L352.92 191C353.054 191.008 353.179 191.068 353.268 191.167C353.358 191.266 353.405 191.396 353.4 191.53C353.392 191.657 353.336 191.777 353.243 191.864C353.15 191.952 353.028 192 352.9 192V192Z" fill="#231F20"/>
<path d="M242.86 206.56C242.795 206.561 242.73 206.55 242.669 206.526C242.609 206.502 242.554 206.466 242.507 206.42C242.46 206.374 242.423 206.32 242.398 206.26C242.373 206.2 242.36 206.135 242.36 206.07C242.36 205.938 242.411 205.811 242.502 205.716C242.594 205.621 242.718 205.565 242.85 205.56L351.94 204.49C352.073 204.49 352.2 204.543 352.294 204.636C352.387 204.73 352.44 204.857 352.44 204.99C352.44 205.123 352.387 205.25 352.294 205.344C352.2 205.437 352.073 205.49 351.94 205.49L242.85 206.56H242.86Z" fill="#231F20"/>
<path d="M253.93 230C253.797 230 253.67 229.947 253.576 229.854C253.483 229.76 253.43 229.633 253.43 229.5C253.43 229.367 253.483 229.24 253.576 229.146C253.67 229.053 253.797 229 253.93 229L349.98 222C350.113 221.991 350.243 222.035 350.344 222.122C350.444 222.209 350.506 222.332 350.515 222.465C350.524 222.598 350.481 222.728 350.393 222.829C350.306 222.929 350.183 222.991 350.05 223L254.05 230H253.93Z" fill="#231F20"/>
<path d="M262 245.41C260.393 245.408 258.824 244.923 257.497 244.017C256.17 243.111 255.146 241.826 254.56 240.33C239.84 202.42 229.9 177.61 228.49 175.33C227.31 174.46 220.28 172.67 214.32 171.5C214.119 171.47 213.927 171.4 213.754 171.293C213.581 171.187 213.432 171.047 213.315 170.881C213.198 170.715 213.116 170.527 213.073 170.329C213.031 170.13 213.03 169.925 213.069 169.726C213.108 169.527 213.188 169.338 213.302 169.17C213.416 169.003 213.564 168.86 213.735 168.751C213.906 168.642 214.098 168.569 214.298 168.536C214.498 168.503 214.703 168.511 214.9 168.56C219.04 169.37 228.9 171.46 230.67 173.26C231.1 173.69 232.41 174.99 257.36 239.26C257.749 240.25 258.443 241.09 259.343 241.659C260.242 242.227 261.299 242.494 262.36 242.42L342.36 235.62C343.445 235.525 344.464 235.059 345.247 234.302C346.03 233.545 346.529 232.541 346.66 231.46L351.41 191.35C351.455 190.955 351.655 190.594 351.967 190.346C352.278 190.099 352.675 189.985 353.07 190.03C353.465 190.08 353.824 190.283 354.071 190.595C354.318 190.908 354.432 191.304 354.39 191.7L349.64 231.81C349.426 233.573 348.614 235.209 347.341 236.446C346.067 237.683 344.408 238.447 342.64 238.61L262.64 245.4L262 245.41Z" fill="#231F20"/>
<path d="M217.57 167L215.66 173.78L200.05 169.55C199.682 169.447 199.338 169.273 199.037 169.036C198.737 168.8 198.487 168.506 198.301 168.172C198.115 167.839 197.997 167.471 197.954 167.091C197.911 166.712 197.943 166.327 198.05 165.96V165.96C198.255 165.273 198.709 164.688 199.323 164.318C199.937 163.948 200.667 163.82 201.37 163.96L217.57 167Z" fill="white"/>
<path d="M215.66 174.31H215.53L199.92 170.08C199.485 169.963 199.078 169.76 198.722 169.484C198.367 169.207 198.07 168.863 197.85 168.47C197.627 168.079 197.485 167.648 197.434 167.201C197.382 166.754 197.422 166.301 197.55 165.87C197.78 165.056 198.308 164.359 199.029 163.916C199.749 163.473 200.61 163.318 201.44 163.48L217.66 166.55C217.728 166.563 217.793 166.59 217.85 166.63C217.907 166.669 217.954 166.72 217.99 166.78C218.059 166.901 218.081 167.044 218.05 167.18L216.14 174C216.102 174.095 216.036 174.177 215.95 174.232C215.864 174.288 215.762 174.315 215.66 174.31V174.31ZM200.8 164.39C200.223 164.397 199.668 164.612 199.237 164.995C198.805 165.379 198.526 165.904 198.451 166.477C198.376 167.049 198.509 167.629 198.826 168.111C199.144 168.592 199.625 168.944 200.18 169.1L215.31 173.2L216.94 167.42L201.25 164.42C201.101 164.395 200.951 164.385 200.8 164.39V164.39Z" fill="#231F20"/>
<path d="M269.81 242.91C269.704 242.91 269.602 242.876 269.517 242.813C269.432 242.75 269.37 242.661 269.34 242.56L251.11 186.37C251.069 186.244 251.08 186.107 251.14 185.989C251.2 185.871 251.304 185.781 251.43 185.74C251.492 185.718 251.558 185.709 251.624 185.714C251.69 185.718 251.754 185.736 251.813 185.766C251.872 185.796 251.924 185.837 251.967 185.888C252.009 185.938 252.041 185.997 252.06 186.06L270.29 242.25C270.331 242.376 270.32 242.513 270.26 242.631C270.2 242.749 270.096 242.839 269.97 242.88C269.919 242.9 269.865 242.91 269.81 242.91V242.91Z" fill="#231F20"/>
<path d="M277.88 242.47C277.771 242.469 277.664 242.433 277.578 242.366C277.491 242.299 277.428 242.206 277.4 242.1L262 186.86C261.982 186.796 261.976 186.73 261.984 186.664C261.992 186.598 262.013 186.534 262.045 186.477C262.078 186.419 262.122 186.368 262.174 186.328C262.226 186.287 262.286 186.257 262.35 186.24C262.479 186.206 262.615 186.224 262.731 186.289C262.847 186.354 262.933 186.462 262.97 186.59L278.41 241.83C278.428 241.894 278.434 241.96 278.426 242.026C278.418 242.092 278.397 242.156 278.365 242.213C278.332 242.271 278.288 242.322 278.236 242.362C278.184 242.403 278.124 242.433 278.06 242.45L277.88 242.47Z" fill="#231F20"/>
<path d="M285.68 241.79C285.567 241.791 285.458 241.754 285.369 241.685C285.28 241.616 285.217 241.519 285.19 241.41L271.82 187.41C271.802 187.347 271.797 187.281 271.806 187.216C271.815 187.151 271.836 187.088 271.87 187.032C271.904 186.976 271.949 186.927 272.002 186.889C272.055 186.851 272.116 186.824 272.18 186.81C272.244 186.793 272.31 186.79 272.375 186.799C272.44 186.808 272.503 186.83 272.56 186.863C272.616 186.897 272.666 186.941 272.705 186.994C272.745 187.046 272.774 187.106 272.79 187.17L286.16 241.17C286.176 241.233 286.18 241.299 286.171 241.363C286.162 241.428 286.14 241.49 286.106 241.546C286.072 241.601 286.028 241.65 285.976 241.689C285.923 241.727 285.863 241.755 285.8 241.77L285.68 241.79Z" fill="#231F20"/>
<path d="M292.91 241.06C292.793 241.062 292.679 241.021 292.589 240.946C292.499 240.871 292.439 240.766 292.42 240.65L282.17 187.89C282.158 187.824 282.158 187.757 282.172 187.691C282.185 187.626 282.212 187.564 282.249 187.509C282.287 187.453 282.335 187.406 282.391 187.369C282.447 187.333 282.509 187.307 282.575 187.295C282.641 187.283 282.708 187.283 282.774 187.297C282.839 187.31 282.901 187.337 282.956 187.374C283.012 187.412 283.059 187.46 283.096 187.516C283.132 187.572 283.158 187.634 283.17 187.7L293.41 240.46C293.434 240.591 293.405 240.726 293.33 240.836C293.255 240.947 293.141 241.023 293.01 241.05L292.91 241.06Z" fill="#231F20"/>
<path d="M300.79 240.19C300.672 240.189 300.558 240.147 300.468 240.07C300.378 239.993 300.319 239.887 300.3 239.77L291.53 188.52C291.519 188.455 291.52 188.388 291.534 188.324C291.549 188.259 291.576 188.198 291.614 188.145C291.652 188.091 291.701 188.045 291.757 188.01C291.813 187.975 291.875 187.951 291.94 187.94C292.005 187.927 292.072 187.928 292.137 187.941C292.202 187.955 292.264 187.982 292.318 188.021C292.372 188.059 292.418 188.108 292.453 188.165C292.488 188.221 292.51 188.284 292.52 188.35L301.28 239.6C301.3 239.731 301.269 239.865 301.193 239.973C301.116 240.081 301 240.156 300.87 240.18L300.79 240.19Z" fill="#231F20"/>
<path d="M308.73 239.24C308.609 239.241 308.491 239.198 308.399 239.119C308.307 239.04 308.247 238.93 308.23 238.81L301.46 188.88C301.45 188.815 301.453 188.749 301.469 188.685C301.485 188.621 301.513 188.561 301.552 188.508C301.591 188.455 301.64 188.41 301.696 188.376C301.753 188.342 301.815 188.32 301.88 188.31C302.012 188.293 302.146 188.328 302.253 188.409C302.359 188.489 302.43 188.608 302.45 188.74L309.22 238.67C309.23 238.736 309.227 238.803 309.21 238.867C309.194 238.932 309.165 238.992 309.125 239.045C309.085 239.098 309.034 239.143 308.977 239.176C308.92 239.21 308.856 239.231 308.79 239.24H308.73Z" fill="#231F20"/>
<path d="M316.39 238.27C316.265 238.266 316.146 238.217 316.054 238.133C315.963 238.049 315.904 237.934 315.89 237.81L311.55 189.39C311.544 189.324 311.551 189.258 311.571 189.195C311.591 189.132 311.622 189.074 311.665 189.023C311.707 188.973 311.759 188.931 311.817 188.9C311.875 188.87 311.939 188.851 312.005 188.845C312.071 188.839 312.137 188.846 312.2 188.866C312.263 188.886 312.321 188.917 312.372 188.96C312.422 189.002 312.464 189.054 312.495 189.112C312.525 189.17 312.544 189.234 312.55 189.3L316.89 237.72C316.901 237.852 316.861 237.984 316.777 238.086C316.693 238.189 316.572 238.255 316.44 238.27H316.39Z" fill="#231F20"/>
<path d="M324.58 237.17C324.453 237.168 324.332 237.119 324.239 237.032C324.147 236.945 324.09 236.826 324.08 236.7L321 189.88C320.995 189.814 321.002 189.747 321.023 189.683C321.044 189.62 321.077 189.561 321.121 189.511C321.165 189.461 321.218 189.42 321.278 189.39C321.338 189.361 321.403 189.344 321.47 189.34C321.601 189.337 321.729 189.384 321.827 189.471C321.926 189.558 321.987 189.679 322 189.81L325.07 236.63C325.075 236.695 325.068 236.761 325.047 236.823C325.027 236.885 324.995 236.943 324.952 236.992C324.909 237.041 324.857 237.082 324.798 237.111C324.739 237.139 324.675 237.156 324.61 237.16L324.58 237.17Z" fill="#231F20"/>
<path d="M332.37 238.27C332.239 238.27 332.113 238.219 332.02 238.127C331.926 238.035 331.873 237.911 331.87 237.78L330.74 190.37C330.739 190.304 330.75 190.239 330.774 190.178C330.798 190.117 330.834 190.061 330.879 190.013C330.925 189.966 330.979 189.928 331.039 189.902C331.1 189.876 331.164 189.861 331.23 189.86C331.362 189.86 331.489 189.911 331.584 190.002C331.679 190.094 331.735 190.218 331.74 190.35L332.87 237.76C332.868 237.891 332.816 238.017 332.725 238.111C332.634 238.206 332.511 238.262 332.38 238.27H332.37Z" fill="#231F20"/>
<path d="M340.94 236.89C340.807 236.89 340.68 236.837 340.586 236.744C340.493 236.65 340.44 236.523 340.44 236.39V190.87C340.44 190.737 340.493 190.61 340.586 190.516C340.68 190.423 340.807 190.37 340.94 190.37C341.073 190.37 341.2 190.423 341.294 190.516C341.387 190.61 341.44 190.737 341.44 190.87V236.39C341.44 236.523 341.387 236.65 341.294 236.744C341.2 236.837 341.073 236.89 340.94 236.89Z" fill="#231F20"/>
<path d="M337.06 274.6H255.06C254.358 274.601 253.668 274.424 253.054 274.083C252.44 273.743 251.923 273.252 251.553 272.656C251.182 272.06 250.97 271.379 250.936 270.678C250.902 269.977 251.048 269.279 251.36 268.65L263.69 243.72C263.777 243.543 263.899 243.386 264.047 243.256C264.195 243.126 264.368 243.027 264.554 242.964C264.741 242.901 264.938 242.875 265.135 242.888C265.331 242.901 265.523 242.953 265.7 243.04C265.877 243.127 266.034 243.249 266.164 243.397C266.294 243.545 266.393 243.718 266.456 243.904C266.519 244.091 266.545 244.288 266.532 244.485C266.519 244.681 266.467 244.873 266.38 245.05L254.06 270C253.975 270.171 253.935 270.36 253.943 270.551C253.952 270.741 254.009 270.926 254.109 271.088C254.209 271.251 254.349 271.385 254.516 271.478C254.682 271.571 254.869 271.62 255.06 271.62H337.06C337.458 271.62 337.839 271.778 338.121 272.059C338.402 272.341 338.56 272.722 338.56 273.12C338.56 273.518 338.402 273.899 338.121 274.181C337.839 274.462 337.458 274.62 337.06 274.62V274.6Z" fill="#231F20"/>
<path d="M158.59 98.36C157.904 98.6588 157.129 98.6799 156.427 98.4188C155.726 98.1577 155.154 97.6347 154.83 96.96C154.643 96.7024 154.519 96.4038 154.471 96.0889C154.422 95.7741 154.449 95.4522 154.55 95.15C154.605 95.0032 154.691 94.87 154.802 94.7596C154.914 94.6491 155.047 94.5639 155.194 94.5098C155.341 94.4557 155.499 94.4339 155.655 94.446C155.811 94.4582 155.963 94.5039 156.1 94.58C154.674 92.847 153.517 90.9084 152.67 88.83C152.256 87.7848 152.078 86.6611 152.149 85.5391C152.22 84.4172 152.538 83.3248 153.08 82.34C151.45 81.48 149.71 80.51 148.9 78.85C148.469 77.8124 148.38 76.6643 148.646 75.5726C148.912 74.4809 149.52 73.5026 150.38 72.78C151.263 72.085 152.286 71.5901 153.379 71.3294C154.472 71.0687 155.608 71.0484 156.71 71.27C156.553 70.7354 156.286 70.2396 155.926 69.8142C155.566 69.3889 155.121 69.0434 154.62 68.8C157.07 66.46 160.62 65.7 164.01 65.57C169.63 65.36 175.53 66.8 179.61 70.66C181.169 72.1309 182.362 73.9458 183.095 75.9598C183.828 77.9739 184.079 80.1313 183.83 82.26C183 87.92 178.96 85.34 175.14 87.46C173.25 88.46 171.96 90.4 170.34 91.79C167.61 94.13 164.1 94.79 161.34 96.79C160.499 97.4362 159.574 97.9644 158.59 98.36V98.36Z" fill="white"/>
<path d="M157.34 99.09C156.727 99.0714 156.131 98.8879 155.613 98.5588C155.096 98.2298 154.677 97.7672 154.4 97.22C154.175 96.894 154.029 96.5201 153.973 96.1278C153.917 95.7355 153.954 95.3357 154.08 94.96C154.175 94.7456 154.313 94.5526 154.485 94.3928C154.657 94.233 154.859 94.1096 155.08 94.03C153.887 92.5107 152.92 90.8265 152.21 89.03C151.804 87.9976 151.612 86.8933 151.646 85.7844C151.681 84.6755 151.94 83.5852 152.41 82.58C150.75 81.8654 149.352 80.6529 148.41 79.11C147.932 77.9718 147.831 76.7107 148.121 75.5108C148.41 74.3109 149.076 73.235 150.02 72.44C151.668 71.1107 153.775 70.4886 155.88 70.71C155.531 70.0954 155.005 69.6005 154.37 69.29C154.297 69.2549 154.234 69.203 154.185 69.1387C154.137 69.0744 154.104 68.9994 154.09 68.92C154.077 68.84 154.083 68.7579 154.109 68.6811C154.136 68.6043 154.181 68.5352 154.24 68.48C156.41 66.4 159.68 65.27 163.95 65.11C170.44 64.88 176.11 66.73 179.95 70.34C181.56 71.8638 182.793 73.7414 183.551 75.8243C184.31 77.9071 184.573 80.1379 184.32 82.34C183.73 86.34 181.53 86.63 179.19 86.91C177.866 86.985 176.57 87.3251 175.38 87.91C174.255 88.6133 173.244 89.4832 172.38 90.49C171.833 91.0833 171.256 91.6474 170.65 92.18C169.096 93.4043 167.371 94.3947 165.53 95.12C164.177 95.6815 162.881 96.3713 161.66 97.18C160.769 97.8675 159.786 98.4263 158.74 98.84V98.84C158.29 98.9994 157.817 99.0838 157.34 99.09V99.09ZM155.59 94.93C155.544 94.9197 155.496 94.9197 155.45 94.93C155.349 94.9566 155.255 95.0054 155.176 95.0729C155.096 95.1404 155.033 95.2248 154.99 95.32C154.924 95.5501 154.912 95.792 154.954 96.0276C154.995 96.2632 155.09 96.4863 155.23 96.68C155.494 97.2571 155.975 97.7063 156.569 97.9293C157.163 98.1523 157.822 98.131 158.4 97.87V97.87C159.353 97.4849 160.248 96.97 161.06 96.34C162.321 95.4927 163.66 94.7694 165.06 94.18C166.831 93.4982 168.495 92.5653 170 91.41C170.58 90.8984 171.134 90.3577 171.66 89.79C172.591 88.6996 173.684 87.7586 174.9 87C176.199 86.3466 177.618 85.9655 179.07 85.88C181.35 85.61 182.85 85.43 183.33 82.16C183.568 80.1113 183.323 78.0355 182.617 76.0979C181.91 74.1604 180.761 72.4147 179.26 71C174.4 66.39 167.63 65.92 164.03 66C160.43 66.08 157.45 67 155.47 68.65C156.298 69.2369 156.904 70.086 157.19 71.06C157.215 71.1411 157.218 71.2273 157.198 71.3098C157.179 71.3924 157.138 71.4683 157.08 71.53C157.025 71.5936 156.955 71.6419 156.876 71.6699C156.797 71.698 156.712 71.7049 156.63 71.69C155.601 71.4813 154.538 71.4983 153.516 71.74C152.494 71.9817 151.537 72.4423 150.71 73.09C149.929 73.7371 149.376 74.6172 149.131 75.6015C148.886 76.5857 148.963 77.6225 149.35 78.56C150.06 80.02 151.57 80.9 153.35 81.83C153.41 81.8627 153.463 81.9069 153.506 81.9601C153.549 82.0133 153.581 82.0744 153.6 82.14C153.631 82.2761 153.609 82.4188 153.54 82.54C153.043 83.4522 152.753 84.4622 152.689 85.4989C152.625 86.5356 152.789 87.5737 153.17 88.54C154.007 90.5685 155.139 92.4623 156.53 94.16C156.602 94.2563 156.637 94.3754 156.629 94.4954C156.62 94.6155 156.569 94.7284 156.484 94.8135C156.398 94.8987 156.286 94.9502 156.165 94.9587C156.045 94.9673 155.926 94.9322 155.83 94.86C155.751 94.8551 155.672 94.8801 155.61 94.93H155.59Z" fill="#231F20"/>
<path d="M178.62 88.23C178.62 88.23 181.31 94.23 180.39 95.23C179.47 96.23 177.12 95.08 177.12 95.08" fill="white"/>
<path d="M179.25 96.15C178.433 96.1089 177.634 95.9014 176.9 95.54C176.841 95.5111 176.788 95.4709 176.745 95.4216C176.701 95.3722 176.668 95.3148 176.646 95.2526C176.625 95.1904 176.616 95.1246 176.62 95.059C176.624 94.9933 176.641 94.9291 176.67 94.87C176.699 94.8109 176.739 94.7581 176.788 94.7145C176.838 94.671 176.895 94.6376 176.957 94.6162C177.02 94.5949 177.085 94.586 177.151 94.5901C177.217 94.5941 177.281 94.6111 177.34 94.64C177.99 94.97 179.51 95.45 180.02 94.9C180.37 94.45 179.51 91.43 178.17 88.43C178.138 88.3696 178.119 88.3034 178.114 88.2353C178.109 88.1672 178.117 88.0988 178.14 88.0343C178.162 87.9697 178.197 87.9104 178.243 87.86C178.289 87.8096 178.345 87.7691 178.407 87.741C178.469 87.713 178.536 87.698 178.605 87.697C178.673 87.6959 178.741 87.7089 178.804 87.735C178.867 87.7611 178.924 87.7999 178.971 87.8489C179.019 87.8979 179.056 87.9562 179.08 88.02C179.93 89.92 181.79 94.46 180.75 95.58C180.555 95.7765 180.32 95.929 180.062 96.0274C179.803 96.1257 179.526 96.1675 179.25 96.15V96.15Z" fill="#231F20"/>
<path d="M179 80.94C181 83.18 179.66 87 179.22 89.56C178.6 93.16 177.897 96.74 177.11 100.3C176.61 102.56 170.69 101.64 169.76 100.78L169.06 108.42C169.06 108.42 166.99 112.36 162.58 109.42C158.17 106.48 157.58 103.19 157.58 103.19L159.69 92.84C159.69 92.84 163.59 93.52 166.69 89.25C169.79 84.98 170.86 77.81 170.86 77.81C170.86 77.81 177.12 78.75 179 80.94Z" fill="white"/>
<path d="M165.73 111C164.505 110.944 163.324 110.522 162.34 109.79C157.82 106.71 157.14 103.38 157.11 103.24C157.095 103.178 157.095 103.112 157.11 103.05L159.22 92.7C159.244 92.5729 159.318 92.4606 159.425 92.3875C159.531 92.3144 159.663 92.2866 159.79 92.31C159.94 92.31 163.44 92.86 166.28 88.91C169.28 84.79 170.34 77.77 170.35 77.7C170.36 77.6345 170.383 77.5716 170.417 77.5149C170.451 77.4583 170.496 77.409 170.55 77.37C170.603 77.3311 170.662 77.303 170.726 77.2876C170.789 77.2721 170.855 77.2695 170.92 77.28C171.19 77.28 177.38 78.28 179.41 80.62C181.21 82.62 180.55 85.78 180.02 88.28C179.92 88.77 179.82 89.23 179.74 89.66C179.12 93.24 178.41 96.86 177.63 100.42C177.532 100.809 177.327 101.162 177.039 101.441C176.751 101.72 176.392 101.914 176 102C174.084 102.426 172.086 102.298 170.24 101.63L169.61 108.51C169.601 108.576 169.58 108.64 169.55 108.7C168.936 109.78 167.924 110.576 166.73 110.92C166.401 110.988 166.065 111.015 165.73 111V111ZM158.12 103.14C158.25 103.65 159.12 106.4 162.9 108.96C163.39 109.371 163.961 109.673 164.577 109.846C165.193 110.018 165.838 110.057 166.47 109.96C167.365 109.703 168.129 109.117 168.61 108.32L169.3 100.8C169.31 100.708 169.345 100.62 169.402 100.546C169.458 100.472 169.534 100.415 169.62 100.382C169.707 100.348 169.801 100.338 169.893 100.353C169.984 100.369 170.07 100.409 170.14 100.47C171.877 101.262 173.825 101.469 175.69 101.06C176.26 100.88 176.58 100.61 176.69 100.25C177.47 96.71 178.18 93.11 178.8 89.53C178.87 89.1 178.98 88.62 179.08 88.12C179.57 85.84 180.17 83 178.7 81.33C177.23 79.66 172.78 78.68 171.3 78.4C170.99 80.14 169.8 85.84 167.13 89.55C164.46 93.26 161.35 93.43 160.13 93.39L158.12 103.14Z" fill="#231F20"/>
<path d="M177.5 97.6C177.5 97.6 174.43 98.86 173.42 95.73Z" fill="white"/>
<path d="M176.13 98.35C175.64 98.3587 175.155 98.2561 174.71 98.05C174.278 97.8347 173.896 97.5298 173.591 97.1557C173.286 96.7815 173.064 96.3466 172.94 95.88C172.899 95.7474 172.912 95.6039 172.977 95.481C173.042 95.3582 173.152 95.2661 173.285 95.225C173.418 95.1839 173.561 95.1971 173.684 95.2618C173.807 95.3265 173.899 95.4374 173.94 95.57C174.021 95.9029 174.172 96.2149 174.382 96.4855C174.592 96.7561 174.857 96.9791 175.16 97.14C175.87 97.4035 176.65 97.4035 177.36 97.14C177.421 97.1157 177.486 97.1037 177.552 97.1046C177.618 97.1055 177.683 97.1194 177.743 97.1454C177.803 97.1714 177.858 97.209 177.904 97.2561C177.95 97.3033 177.986 97.3589 178.01 97.42C178.034 97.4811 178.046 97.5463 178.045 97.612C178.044 97.6777 178.031 97.7426 178.005 97.803C177.979 97.8633 177.941 97.918 177.894 97.9638C177.847 98.0096 177.791 98.0457 177.73 98.07C177.217 98.2547 176.675 98.3494 176.13 98.35V98.35Z" fill="#231F20"/>
<path d="M170 88.61C170.053 87.691 169.845 86.7758 169.4 85.97C169.16 85.3073 168.823 84.6838 168.4 84.12C168.179 83.8422 167.9 83.6166 167.582 83.4593C167.264 83.302 166.915 83.2169 166.56 83.21C166.245 83.236 165.94 83.3289 165.664 83.4824C165.388 83.6358 165.148 83.8464 164.96 84.1C164.585 84.6063 164.328 85.1908 164.21 85.81C163.931 87.1552 164.01 88.55 164.438 89.8554C164.866 91.1609 165.629 92.3313 166.65 93.25L166.48 93" fill="white"/>
<path d="M166.59 93.75C166.529 93.7512 166.469 93.7404 166.412 93.7181C166.355 93.6958 166.304 93.6624 166.26 93.62C165.173 92.6416 164.362 91.3954 163.908 90.0057C163.453 88.616 163.371 87.1313 163.67 85.7C163.796 85.0031 164.084 84.3455 164.51 83.78C164.745 83.4663 165.046 83.2078 165.391 83.023C165.737 82.8381 166.119 82.7313 166.51 82.71C166.942 82.7102 167.367 82.8085 167.755 82.9973C168.143 83.1861 168.484 83.4606 168.75 83.8C169.217 84.4083 169.591 85.0823 169.86 85.8C170.344 86.6902 170.565 87.699 170.5 88.71C170.492 88.7756 170.47 88.8388 170.436 88.8958C170.403 88.9529 170.358 89.0025 170.305 89.0417C170.251 89.081 170.191 89.109 170.126 89.1242C170.062 89.1394 169.995 89.1413 169.93 89.13C169.801 89.1102 169.684 89.0405 169.606 88.9357C169.527 88.831 169.493 88.6997 169.51 88.57C169.537 87.7443 169.343 86.9264 168.95 86.2C168.704 85.58 168.367 85.0003 167.95 84.48C167.778 84.2597 167.56 84.0795 167.311 83.9517C167.063 83.8239 166.789 83.7517 166.51 83.74C166.267 83.7634 166.032 83.8378 165.82 83.9585C165.608 84.0791 165.424 84.2432 165.28 84.44C164.953 84.8886 164.731 85.4045 164.63 85.95C164.386 87.1201 164.432 88.3321 164.763 89.4806C165.094 90.629 165.701 91.6793 166.53 92.54C166.592 92.5543 166.651 92.5812 166.703 92.619C166.754 92.6569 166.798 92.7048 166.83 92.76L167 93C167.062 93.1022 167.087 93.2226 167.07 93.341C167.054 93.4594 166.997 93.5685 166.91 93.65C166.819 93.7207 166.705 93.7562 166.59 93.75Z" fill="#231F20"/>
<path d="M169.8 100.78C168.13 99.9271 166.742 98.6113 165.8 96.99C165.8 96.99 165.1 102.5 169.54 104.87L169.8 100.78Z" fill="#231F20"/>
<path d="M169.55 105.37C169.466 105.369 169.384 105.349 169.31 105.31C164.63 102.81 165.31 96.98 165.31 96.93C165.323 96.8213 165.372 96.7198 165.447 96.6405C165.523 96.5613 165.622 96.5085 165.73 96.49C165.838 96.4771 165.946 96.4981 166.041 96.5501C166.136 96.6021 166.213 96.6825 166.26 96.78C167.147 98.2922 168.444 99.5228 170 100.33C170.088 100.374 170.161 100.443 170.211 100.529C170.261 100.614 170.285 100.711 170.28 100.81L170.03 104.9C170.024 104.983 169.997 105.064 169.952 105.134C169.906 105.204 169.844 105.261 169.77 105.3C169.705 105.343 169.628 105.368 169.55 105.37V105.37ZM166.3 98.65C166.341 99.6935 166.614 100.715 167.098 101.64C167.582 102.565 168.266 103.371 169.1 104L169.28 101.06C168.159 100.428 167.152 99.6138 166.3 98.65V98.65Z" fill="#231F20"/>
<path d="M177.467 85.5565C177.701 84.8775 177.674 84.2529 177.408 84.1613C177.142 84.0697 176.736 84.5458 176.503 85.2247C176.269 85.9036 176.296 86.5283 176.562 86.6199C176.829 86.7115 177.234 86.2354 177.467 85.5565Z" fill="#231F20"/>
<path d="M151.41 102.68C151.41 102.68 167 105.3 170 114.3C173 123.3 168 152.3 170 154.99C172 157.68 177 175.2 177 175.75C177 180.62 135 182.19 135 182.19C135 182.19 133.94 161.04 133.6 148.19C133.26 135.34 140 99.72 151.41 102.68Z" fill="#FDFFFF"/>
<path d="M174.82 167C174.767 167.01 174.713 167.01 174.66 167C174.562 166.967 174.476 166.904 174.415 166.819C174.354 166.735 174.321 166.634 174.32 166.53C174.22 166.06 173.1 163.42 172.12 161.08C170.71 157.75 169.25 154.3 169.02 153.27C168.79 152.24 169.22 144.1 169.86 133.76C170.14 129.23 170.38 125.32 170.42 123.84C170.375 120.679 170.057 117.527 169.47 114.42C169.445 114.287 169.473 114.15 169.549 114.039C169.625 113.927 169.742 113.85 169.875 113.825C170.008 113.8 170.145 113.828 170.256 113.904C170.368 113.98 170.445 114.097 170.47 114.23C171.091 117.404 171.425 120.627 171.47 123.86C171.47 125.36 171.19 129.28 170.91 133.86C170.43 141.5 169.78 151.96 170.04 153.09C170.26 154.03 171.76 157.59 173.04 160.73C175.42 166.38 175.4 166.44 175.3 166.73C175.253 166.815 175.184 166.886 175.099 166.934C175.014 166.981 174.917 167.004 174.82 167V167Z" fill="#231F20"/>
<path d="M149.62 95.51C148.382 94.6895 146.991 94.1283 145.53 93.86C142.122 93.4895 138.703 94.4616 136 96.57C132.09 99.29 127.93 102.51 126.93 107.17C126.524 109.385 126.871 111.672 127.917 113.666C128.963 115.66 130.647 117.246 132.7 118.17C133.428 118.527 134.244 118.669 135.05 118.58C136.58 118.34 137.6 116.95 138.65 115.81C141.38 112.81 143.86 112.28 147.65 111.89C149.999 111.605 152.364 111.485 154.73 111.53C159.58 111.71 164.3 113.11 169.1 113.85C172.1 114.31 170.84 111.17 169.63 110.04C167.63 108.17 165.54 106.4 163.39 104.71C159.018 101.329 154.417 98.2553 149.62 95.51V95.51Z" fill="#FDFFFF"/>
<path d="M211.87 174C211.81 174.27 211.53 174.4 211.28 174.51C208.28 175.73 204.85 176.3 201.79 175.22C198.19 173.95 196.28 170.73 192.67 169.62C191.36 169.22 190.06 168.85 188.75 168.49C186.87 167.97 184.98 167.49 183.09 166.98C177.75 165.57 171.2 164.71 166.34 161.98C162.34 159.69 151.01 139.98 147.87 131.69C144.73 123.4 154.44 118.55 154.44 118.55C159.67 114.17 173.44 150.38 173.44 150.38L193.22 159.69L197.32 161.61C198.14 162.077 199.004 162.462 199.9 162.76C201.97 163.27 204.54 162.31 206.55 161.88C206.829 161.799 207.121 161.772 207.41 161.8C207.614 161.834 207.812 161.895 208 161.98C208.851 162.305 209.655 162.742 210.39 163.28C210.755 163.552 211.062 163.893 211.294 164.284C211.526 164.676 211.677 165.109 211.74 165.56L208.92 165.49C206.75 165.43 205.85 168.08 206.92 169.82C207.99 171.56 210.69 171.76 211.73 173.53C211.822 173.67 211.871 173.833 211.87 174Z" fill="white"/>
<path d="M205.29 176.25C204.042 176.259 202.801 176.056 201.62 175.65C199.934 174.968 198.378 174 197.02 172.79C195.713 171.592 194.184 170.662 192.52 170.05C191.22 169.66 189.93 169.29 188.62 168.93C186.87 168.45 185.1 167.99 183.34 167.52L182.96 167.43C181.55 167.05 180.08 166.72 178.52 166.37C174.2 165.37 169.72 164.37 166.09 162.37C162 160 150.58 140.17 147.4 131.79C144.22 123.41 153.4 118.47 154.17 118.05C154.422 117.844 154.72 117.703 155.039 117.638C155.358 117.574 155.688 117.588 156 117.68C158.61 118.36 162.43 124.05 167.35 134.6C170.66 141.69 173.35 148.71 173.87 149.94L193.46 159.15L197.56 161.08L198.23 161.41C198.804 161.74 199.415 162.002 200.05 162.19C201.54 162.56 203.41 162.08 205.05 161.66C205.54 161.53 206.05 161.41 206.46 161.31C206.802 161.217 207.157 161.186 207.51 161.22C207.751 161.266 207.986 161.34 208.21 161.44C209.107 161.775 209.953 162.236 210.72 162.81C211.141 163.122 211.494 163.515 211.759 163.967C212.024 164.419 212.194 164.92 212.26 165.44C212.269 165.511 212.261 165.582 212.239 165.65C212.216 165.717 212.179 165.779 212.13 165.83C212.081 165.88 212.022 165.92 211.956 165.946C211.891 165.971 211.82 165.983 211.75 165.98L208.93 165.91C208.603 165.893 208.278 165.969 207.992 166.13C207.707 166.291 207.474 166.531 207.32 166.82C207.087 167.224 206.964 167.683 206.964 168.15C206.964 168.617 207.087 169.076 207.32 169.48C207.888 170.224 208.649 170.798 209.52 171.14C210.572 171.558 211.479 172.274 212.13 173.2C212.289 173.449 212.356 173.746 212.32 174.04C212.256 174.243 212.143 174.428 211.992 174.578C211.84 174.728 211.654 174.838 211.45 174.9C209.501 175.736 207.41 176.195 205.29 176.25ZM155.42 118.6C155.18 118.603 154.95 118.691 154.77 118.85L154.67 118.92C154.29 119.11 145.39 123.67 148.34 131.44C151.4 139.5 162.74 159.26 166.59 161.44C170.09 163.44 174.49 164.44 178.74 165.38C180.31 165.73 181.74 166.06 183.22 166.44L183.59 166.54C185.36 167 187.13 167.46 188.89 167.95C190.2 168.31 191.51 168.68 192.81 169.08C194.598 169.724 196.243 170.712 197.65 171.99C198.927 173.145 200.4 174.062 202 174.7C205.28 175.87 208.78 174.97 211.13 174.01C211.231 173.972 211.326 173.918 211.41 173.85C211.387 173.792 211.36 173.735 211.33 173.68C210.761 172.92 209.988 172.337 209.1 172C208.064 171.588 207.164 170.895 206.5 170C206.181 169.439 206.013 168.805 206.013 168.16C206.013 167.515 206.181 166.881 206.5 166.32C206.745 165.874 207.111 165.506 207.554 165.257C207.998 165.008 208.502 164.888 209.01 164.91L211.18 164.97C210.978 164.428 210.632 163.951 210.18 163.59C209.486 163.074 208.722 162.66 207.91 162.36C207.763 162.294 207.608 162.243 207.45 162.21C207.217 162.194 206.983 162.221 206.76 162.29C206.33 162.38 205.87 162.5 205.39 162.62C203.63 163.08 201.63 163.62 199.89 163.17C199.195 162.95 198.525 162.658 197.89 162.3L197.25 161.98L193 160.06L173.22 150.76C173.103 150.701 173.01 150.601 172.96 150.48C169.75 142.04 160.38 119.86 155.7 118.65C155.609 118.623 155.515 118.606 155.42 118.6Z" fill="#231F20"/>
<path d="M193.25 159.61L188.75 168.45C186.87 167.93 184.98 167.45 183.09 166.94C177.75 165.53 171.2 164.67 166.34 161.94C162.34 159.65 152.14 146.94 147.24 136.72C141.24 124.1 155.24 115.57 155.24 115.57C160.47 111.18 173.48 150.34 173.48 150.34L193.25 159.61Z" fill="#231F20"/>
<path d="M188.75 169H188.62C186.87 168.52 185.1 168 183.34 167.59L182.97 167.49C181.55 167.12 180.08 166.79 178.52 166.49C174.2 165.49 169.72 164.49 166.09 162.49C161.89 160.09 151.58 147.08 146.79 137.05C144.25 131.72 144.86 126.25 148.58 121.24C150.34 118.879 152.503 116.848 154.97 115.24C155.207 115.047 155.488 114.916 155.788 114.859C156.089 114.801 156.398 114.819 156.69 114.91C157.69 115.18 160.56 116.01 167.69 133.35C170.86 141.09 173.47 148.75 173.92 150.09L193.5 159.29C193.62 159.35 193.713 159.454 193.76 159.58C193.787 159.641 193.801 159.708 193.801 159.775C193.801 159.842 193.787 159.909 193.76 159.97L189.26 168.81C189.202 168.887 189.123 168.945 189.032 168.979C188.942 169.012 188.844 169.02 188.75 169ZM156.12 115.68C155.908 115.684 155.705 115.766 155.55 115.91C153.168 117.464 151.073 119.419 149.36 121.69C145.84 126.45 145.28 131.42 147.69 136.46C152.76 147.07 162.9 159.36 166.59 161.46C170.09 163.46 174.49 164.46 178.74 165.4C180.31 165.75 181.74 166.08 183.22 166.46L183.59 166.56C185.23 166.99 186.87 167.42 188.49 167.86L192.58 159.86L173.26 150.78C173.199 150.75 173.144 150.708 173.1 150.656C173.055 150.605 173.021 150.545 173 150.48C169.93 141.26 161 117.04 156.42 115.75C156.324 115.714 156.223 115.69 156.12 115.68V115.68Z" fill="#231F20"/>
<path d="M156.93 210.54C156.861 210.541 156.792 210.527 156.728 210.5C156.664 210.472 156.607 210.431 156.56 210.38C151.78 205.16 140.73 187.24 140.27 186.48C140.234 186.425 140.209 186.362 140.197 186.297C140.186 186.232 140.188 186.165 140.203 186.101C140.218 186.036 140.245 185.976 140.284 185.922C140.324 185.869 140.373 185.824 140.43 185.79C140.542 185.723 140.676 185.702 140.803 185.732C140.93 185.761 141.04 185.84 141.11 185.95C141.23 186.14 152.58 204.56 157.3 209.71C157.363 209.782 157.404 209.87 157.419 209.965C157.433 210.06 157.42 210.156 157.381 210.244C157.342 210.331 157.279 210.405 157.199 210.458C157.119 210.51 157.026 210.539 156.93 210.54Z" fill="white"/>
<path d="M140.69 114.52C140.581 114.519 140.475 114.482 140.389 114.415C140.303 114.348 140.241 114.255 140.212 114.15C140.184 114.044 140.191 113.933 140.232 113.832C140.273 113.731 140.346 113.646 140.44 113.59C141 113.26 154.36 105.59 162.81 108.9C162.932 108.951 163.029 109.047 163.081 109.169C163.133 109.29 163.137 109.426 163.09 109.55C163.066 109.611 163.03 109.667 162.984 109.714C162.938 109.761 162.883 109.799 162.823 109.825C162.763 109.851 162.698 109.865 162.632 109.866C162.566 109.866 162.501 109.854 162.44 109.83C154.44 106.68 141.07 114.37 140.94 114.45C140.865 114.497 140.778 114.522 140.69 114.52V114.52Z" fill="#231F20"/>
</svg>
