<svg width="375" height="306" viewBox="0 0 375 306" fill="none" xmlns="http://www.w3.org/2000/svg">
<path d="M269.905 225.562L267.388 233.743L271.549 236.057L274.777 228.272L269.905 225.562Z" fill="#F4A28C"/>
<path d="M247.666 135.481C253.432 128.376 264.921 129.706 268.616 138.039C269.797 140.812 270.438 143.785 270.504 146.798C271.275 164.855 280.654 174.701 289.16 171.595C297.665 168.489 301.857 153.386 301.857 153.386C301.857 153.386 308.861 148.402 310.414 153.386C311.967 158.369 305.491 158.461 305.491 158.461C305.491 158.461 297.178 207.292 260.912 176.051C237.983 156.248 241.81 142.738 247.666 135.481Z" fill="#F4A28C"/>
<path opacity="0.08" d="M247.666 135.481C253.432 128.376 264.921 129.706 268.616 138.039C269.797 140.812 270.438 143.785 270.504 146.798C271.275 164.855 280.654 174.701 289.16 171.595C297.665 168.489 301.857 153.386 301.857 153.386C301.857 153.386 308.861 148.402 310.414 153.386C311.967 158.369 305.491 158.461 305.491 158.461C305.491 158.461 297.178 207.292 260.912 176.051C237.983 156.248 241.81 142.738 247.666 135.481Z" fill="black"/>
<path opacity="0.3" d="M185.924 262.427C261.59 262.427 322.929 258.342 322.929 253.302C322.929 248.263 261.59 244.177 185.924 244.177C110.259 244.177 48.9194 248.263 48.9194 253.302C48.9194 258.342 110.259 262.427 185.924 262.427Z" fill="#E6E6E6"/>
<path d="M208.579 53.936H90.4023V250.369H208.579V53.936Z" fill="#C1C1C1"/>
<path d="M217.216 53.936H99.04V250.369H217.216V53.936Z" fill="#E6E6E6"/>
<path opacity="0.58" d="M66.7631 243.02C66.7631 243.02 60.2367 241.234 58.8157 235.164C58.8157 235.164 68.9657 233.134 69.2194 243.558L66.7631 243.02Z" fill="#68E1FD"/>
<path opacity="0.73" d="M67.565 242.371C67.565 242.371 62.9975 235.164 67.0169 228.415C67.0169 228.415 74.7106 233.307 71.29 242.391L67.565 242.371Z" fill="#68E1FD"/>
<path d="M68.7322 242.381C68.7322 242.381 71.1479 234.758 78.4356 233.317C78.4356 233.317 79.7957 238.27 73.7158 242.452L68.7322 242.381Z" fill="#68E1FD"/>
<path d="M64.0022 242.208L65.3217 251.262L73.6548 251.293L74.8932 242.249L64.0022 242.208Z" fill="#24285B"/>
<path d="M206.498 67.7603H110.094V225.319H206.498V67.7603Z" fill="white"/>
<path opacity="0.08" d="M193.029 167.89C193.029 167.89 190.299 171.199 192.694 173.818C195.09 176.436 204.56 177.431 197.069 187.906L188.878 185.419L173.562 211.677L197.069 219.28L195.963 225.369H217.217V182.74L199.586 166.581L193.029 167.89Z" fill="black"/>
<path d="M195.607 182.689L216.709 190.21L211.238 216.61L184.27 206.998L195.607 182.689Z" fill="#FFD200"/>
<path opacity="0.04" d="M195.607 182.689L216.709 190.21L211.238 216.61L184.27 206.998L195.607 182.689Z" fill="black"/>
<path d="M212.629 190.697C212.629 190.697 219.51 180.608 212.7 173.818" stroke="#24285B" stroke-width="1.015" stroke-linecap="round" stroke-linejoin="round"/>
<path opacity="0.05" d="M110.094 67.74V100.22H122.152C122.16 101.15 122.36 102.069 122.737 102.92C123.114 103.771 123.661 104.535 124.345 105.166C125.028 105.798 125.834 106.282 126.712 106.591C127.59 106.899 128.521 107.025 129.45 106.96H217.217V94.0183L144.309 77.0881L110.094 67.74Z" fill="black"/>
<path d="M200.51 187.906L222.901 188.677L225.682 215.494L197.069 214.509L200.51 187.906Z" fill="#FFD200"/>
<path d="M110.094 67.7603L124.689 91.2576H136.737L122.233 67.7603H110.094Z" fill="#68E1FD"/>
<path d="M122.152 67.7603L136.737 91.2576H148.785L134.281 67.7603H122.152Z" fill="#68E1FD"/>
<path d="M134.139 67.7603L148.724 91.2576H160.782L146.268 67.7603H134.139Z" fill="#68E1FD"/>
<path d="M146.187 67.7603L160.782 91.2576H172.831L158.316 67.7603H146.187Z" fill="#68E1FD"/>
<path d="M158.235 67.7603L172.831 91.2576H184.879L170.374 67.7603H158.235Z" fill="#68E1FD"/>
<path d="M170.283 67.7603L184.879 91.2576H196.927L182.422 67.7603H170.283Z" fill="#68E1FD"/>
<path d="M182.28 67.7603L196.866 91.2576H208.924L194.41 67.7603H182.28Z" fill="#68E1FD"/>
<path d="M194.328 67.7603L208.924 91.2576H220.972L206.458 67.7603H194.328Z" fill="#68E1FD"/>
<path opacity="0.44" d="M122.152 67.7603L136.737 91.2576H148.785L134.281 67.7603H122.152Z" fill="white"/>
<path opacity="0.44" d="M146.187 67.7603L160.782 91.2576H172.831L158.316 67.7603H146.187Z" fill="white"/>
<path opacity="0.44" d="M170.283 67.7603L184.879 91.2576H196.927L182.422 67.7603H170.283Z" fill="white"/>
<path opacity="0.44" d="M194.328 67.7603L208.924 91.2576H220.972L206.458 67.7603H194.328Z" fill="white"/>
<path d="M124.689 91.2575H136.737V93.521C136.737 94.3127 136.581 95.0967 136.278 95.8282C135.975 96.5597 135.531 97.2244 134.971 97.7842C134.411 98.3441 133.747 98.7882 133.015 99.0912C132.284 99.3941 131.5 99.5501 130.708 99.5501C129.916 99.5501 129.132 99.3941 128.401 99.0912C127.669 98.7882 127.005 98.3441 126.445 97.7842C125.885 97.2244 125.441 96.5597 125.138 95.8282C124.835 95.0967 124.679 94.3127 124.679 93.521V91.2575H124.689Z" fill="#68E1FD"/>
<path d="M136.737 91.2575H148.785V93.521C148.785 94.3127 148.629 95.0967 148.326 95.8282C148.023 96.5597 147.579 97.2244 147.019 97.7842C146.46 98.3441 145.795 98.7882 145.063 99.0912C144.332 99.3941 143.548 99.5501 142.756 99.5501C141.964 99.5501 141.18 99.3941 140.449 99.0912C139.717 98.7882 139.053 98.3441 138.493 97.7842C137.933 97.2244 137.489 96.5597 137.186 95.8282C136.883 95.0967 136.727 94.3127 136.727 93.521V91.2575H136.737Z" fill="#68E1FD"/>
<path opacity="0.44" d="M136.737 91.2575H148.785V93.521C148.785 94.3127 148.629 95.0967 148.326 95.8282C148.023 96.5597 147.579 97.2244 147.019 97.7842C146.46 98.3441 145.795 98.7882 145.063 99.0912C144.332 99.3941 143.548 99.5501 142.756 99.5501C141.964 99.5501 141.18 99.3941 140.449 99.0912C139.717 98.7882 139.053 98.3441 138.493 97.7842C137.933 97.2244 137.489 96.5597 137.186 95.8282C136.883 95.0967 136.727 94.3127 136.727 93.521V91.2575H136.737Z" fill="white"/>
<path d="M148.724 91.2575H160.772V93.521C160.772 95.12 160.137 96.6535 159.006 97.7842C157.876 98.9149 156.342 99.5501 154.743 99.5501C153.951 99.5501 153.167 99.3941 152.436 99.0912C151.704 98.7882 151.04 98.3441 150.48 97.7842C149.92 97.2244 149.476 96.5597 149.173 95.8282C148.87 95.0967 148.714 94.3127 148.714 93.521V91.2575H148.724Z" fill="#68E1FD"/>
<path d="M160.782 91.2575H172.79V93.521C172.79 94.3127 172.634 95.0967 172.331 95.8282C172.028 96.5597 171.584 97.2244 171.024 97.7842C170.464 98.3441 169.8 98.7882 169.068 99.0912C168.337 99.3941 167.553 99.5501 166.761 99.5501C165.969 99.5501 165.185 99.3941 164.454 99.0912C163.722 98.7882 163.057 98.3441 162.498 97.7842C161.938 97.2244 161.494 96.5597 161.191 95.8282C160.888 95.0967 160.732 94.3127 160.732 93.521V91.2575H160.782Z" fill="#68E1FD"/>
<path opacity="0.44" d="M160.782 91.2575H172.79V93.521C172.79 94.3127 172.634 95.0967 172.331 95.8282C172.028 96.5597 171.584 97.2244 171.024 97.7842C170.464 98.3441 169.8 98.7882 169.068 99.0912C168.337 99.3941 167.553 99.5501 166.761 99.5501C165.969 99.5501 165.185 99.3941 164.454 99.0912C163.722 98.7882 163.057 98.3441 162.498 97.7842C161.938 97.2244 161.494 96.5597 161.191 95.8282C160.888 95.0967 160.732 94.3127 160.732 93.521V91.2575H160.782Z" fill="white"/>
<path d="M172.79 91.2575H184.838V93.521C184.838 95.1078 184.213 96.6306 183.097 97.7593C181.982 98.8879 180.467 99.5314 178.88 99.5501C178.083 99.5581 177.293 99.4081 176.554 99.1087C175.816 98.8094 175.144 98.3665 174.577 97.8059C174.011 97.2452 173.562 96.5779 173.255 95.8424C172.948 95.1069 172.79 94.3179 172.79 93.521V91.2575Z" fill="#68E1FD"/>
<path d="M184.879 91.2575H196.927V93.521C196.927 94.3127 196.771 95.0967 196.468 95.8282C196.165 96.5597 195.721 97.2244 195.161 97.7842C194.601 98.3441 193.936 98.7882 193.205 99.0912C192.473 99.3941 191.689 99.5501 190.898 99.5501C190.106 99.5501 189.322 99.3941 188.59 99.0912C187.859 98.7882 187.194 98.3441 186.634 97.7842C186.074 97.2244 185.63 96.5597 185.327 95.8282C185.024 95.0967 184.868 94.3127 184.868 93.521V91.2575H184.879Z" fill="#68E1FD"/>
<path opacity="0.44" d="M184.879 91.2575H196.927V93.521C196.927 94.3127 196.771 95.0967 196.468 95.8282C196.165 96.5597 195.721 97.2244 195.161 97.7842C194.601 98.3441 193.936 98.7882 193.205 99.0912C192.473 99.3941 191.689 99.5501 190.898 99.5501C190.106 99.5501 189.322 99.3941 188.59 99.0912C187.859 98.7882 187.194 98.3441 186.634 97.7842C186.074 97.2244 185.63 96.5597 185.327 95.8282C185.024 95.0967 184.868 94.3127 184.868 93.521V91.2575H184.879Z" fill="white"/>
<path d="M196.866 91.2575H208.924V93.521C208.924 94.3127 208.768 95.0967 208.465 95.8282C208.162 96.5597 207.718 97.2244 207.158 97.7842C206.598 98.3441 205.934 98.7882 205.202 99.0912C204.471 99.3941 203.687 99.5501 202.895 99.5501C202.103 99.5501 201.319 99.3941 200.588 99.0912C199.856 98.7882 199.191 98.3441 198.632 97.7842C198.072 97.2244 197.628 96.5597 197.325 95.8282C197.022 95.0967 196.866 94.3127 196.866 93.521V91.2575Z" fill="#68E1FD"/>
<path d="M208.924 91.2575H220.972V93.521C220.972 94.3127 220.816 95.0967 220.513 95.8282C220.21 96.5597 219.766 97.2244 219.206 97.7842C218.646 98.3441 217.982 98.7882 217.25 99.0912C216.519 99.3941 215.735 99.5501 214.943 99.5501C214.151 99.5501 213.367 99.3941 212.636 99.0912C211.904 98.7882 211.24 98.3441 210.68 97.7842C210.12 97.2244 209.676 96.5597 209.373 95.8282C209.07 95.0967 208.914 94.3127 208.914 93.521V91.2575H208.924Z" fill="#68E1FD"/>
<path opacity="0.44" d="M208.924 91.2575H220.972V93.521C220.972 94.3127 220.816 95.0967 220.513 95.8282C220.21 96.5597 219.766 97.2244 219.206 97.7842C218.646 98.3441 217.982 98.7882 217.25 99.0912C216.519 99.3941 215.735 99.5501 214.943 99.5501C214.151 99.5501 213.367 99.3941 212.636 99.0912C211.904 98.7882 211.24 98.3441 210.68 97.7842C210.12 97.2244 209.676 96.5597 209.373 95.8282C209.07 95.0967 208.914 94.3127 208.914 93.521V91.2575H208.924Z" fill="white"/>
<path d="M257.685 111.568C258.595 113.739 259.209 116.023 259.512 118.358C259.531 118.641 259.493 118.925 259.401 119.193C259.309 119.461 259.164 119.707 258.974 119.918C258.785 120.129 258.556 120.3 258.299 120.421C258.043 120.542 257.765 120.61 257.482 120.622C256.584 120.728 255.674 120.572 254.862 120.175C254.05 119.777 253.37 119.153 252.904 118.378L250.559 115.242C250.155 114.567 249.972 113.784 250.033 113C250.095 112.216 250.4 111.47 250.904 110.867C252.681 108.502 256.802 109.142 257.685 111.568Z" fill="#F4A28C"/>
<path d="M250.965 115.13L249.341 128.914L257.096 129.828L255.157 119.353L250.965 115.13Z" fill="#F4A28C"/>
<path d="M258.598 114.085L260.222 115.272C260.312 115.341 260.384 115.431 260.431 115.534C260.477 115.637 260.498 115.75 260.49 115.863C260.482 115.976 260.445 116.085 260.385 116.18C260.324 116.276 260.24 116.354 260.141 116.409L258.689 117.201L258.598 114.085Z" fill="#F4A28C"/>
<path opacity="0.31" d="M255.33 120.236C254.571 120.128 253.847 119.843 253.219 119.404C253.219 119.404 252.346 124.286 256.122 124.56L255.33 120.236Z" fill="#CE8172"/>
<path d="M253.99 115.912C253.99 115.912 253.462 114.369 252.325 114.897C251.189 115.425 251.96 117.627 253.604 117.323L253.99 115.912Z" fill="#F4A28C"/>
<path d="M256.781 111.649C255.62 112.366 254.348 112.884 253.016 113.182C253.016 113.182 254.031 117.861 250.986 120.368C250.986 120.368 245.058 115.212 248.042 111.05C250.539 107.558 252.275 104.666 256.071 106.046C256.621 106.243 257.107 106.589 257.473 107.045C257.839 107.501 258.072 108.049 258.146 108.629C258.219 109.21 258.131 109.799 257.89 110.332C257.649 110.865 257.265 111.321 256.781 111.649Z" fill="#24285B"/>
<path d="M245.048 114.318C247.374 114.318 249.26 112.432 249.26 110.106C249.26 107.78 247.374 105.894 245.048 105.894C242.722 105.894 240.836 107.78 240.836 110.106C240.836 112.432 242.722 114.318 245.048 114.318Z" fill="#24285B"/>
<path d="M253.99 115.445C253.99 115.445 253.097 113.77 251.818 114.613C250.539 115.455 251.402 117.485 253.472 117.577L253.99 115.445Z" fill="#F4A28C"/>
<path d="M249.331 128.914L252.782 129.056C256.785 129.218 260.686 130.365 264.14 132.395C271.316 136.628 282.207 144.87 280.695 155.233C278.472 170.539 266.789 184.445 266.789 184.445L238.136 183.338C238.136 183.338 214.05 127.625 249.331 128.914Z" fill="#68E1FD"/>
<path opacity="0.08" d="M246.073 134.618C246.073 134.618 261.501 145.682 252.224 165.2C242.947 184.719 254.629 183.978 254.629 183.978L238.166 183.338L235.487 176.233L246.073 134.618Z" fill="black"/>
<path d="M238.166 183.338L243.728 237.864H258.598L254.163 192.514L261.927 199.7C264.62 202.202 266.532 205.43 267.432 208.994C268.333 212.558 268.183 216.306 267.002 219.787L264.84 226.171L280.867 233.185L283.456 218.772C284.099 215.252 283.977 211.635 283.095 208.166C282.214 204.698 280.596 201.461 278.35 198.675L266.85 184.465L238.166 183.338Z" fill="#24285B"/>
<path d="M219.155 190.382C219.155 190.382 222.657 178.68 214.08 174.274" stroke="#24285B" stroke-width="1.015" stroke-linecap="round" stroke-linejoin="round"/>
<path d="M248.478 139.957C248.305 138.204 247.629 136.539 246.532 135.162C245.434 133.784 243.961 132.753 242.291 132.193C240.621 131.634 238.825 131.568 237.119 132.006C235.413 132.443 233.87 133.365 232.675 134.659C229.468 138.14 226.9 143.307 226.798 150.899C226.554 170.762 216.547 182.07 203.849 165.87C203.241 165.078 202.477 164.42 201.604 163.936C200.731 163.452 199.768 163.154 198.774 163.059C196.196 162.835 193.07 163.059 192.765 165.241C192.187 169.514 195.475 169.707 197.749 169.301C198.336 169.208 198.938 169.298 199.474 169.557C200.009 169.817 200.452 170.234 200.743 170.752C203.24 175.33 210.345 186.018 221.51 184.384C233.619 182.608 250.711 163.627 248.478 139.957Z" fill="#F4A28C"/>
<path d="M323.974 131.756H288.561V153.132H323.974V131.756Z" fill="#FFD200"/>
<path d="M310.647 118.378H288.561V131.746H310.647V118.378Z" fill="#FFD200"/>
<path opacity="0.44" d="M310.647 118.378H288.561V131.746H310.647V118.378Z" fill="white"/>
<path d="M323.984 103.356H310.657V131.756H323.984V103.356Z" fill="#FFD200"/>
<path opacity="0.04" d="M323.984 103.356H310.657V131.756H323.984V103.356Z" fill="black"/>
<path d="M324.238 141.683H288.459V142.627H324.238V141.683Z" fill="#24285B"/>
<path d="M306.75 143.855C307.781 143.855 308.617 143.019 308.617 141.987C308.617 140.956 307.781 140.12 306.75 140.12C305.718 140.12 304.882 140.956 304.882 141.987C304.882 143.019 305.718 143.855 306.75 143.855Z" fill="white"/>
<path opacity="0.29" d="M295.991 121.23H291.586V125.118H295.991V121.23Z" fill="white"/>
<path opacity="0.29" d="M322.076 105.894H317.671V109.781H322.076V105.894Z" fill="white"/>
<path d="M310.658 105.894H293.23V118.378H310.658V105.894Z" fill="#FFD200"/>
<path d="M248.956 237.864L250.732 246.228H255.492L254.528 237.864H248.956Z" fill="#F4A28C"/>
<path d="M250.732 246.228L251.676 250.379L262.394 246.228C262.394 246.228 257.38 242.168 250.732 246.228Z" fill="#68E1FD"/>
<path d="M267.875 232.17L265.226 235.499L275.143 241.295C275.143 241.295 275.204 234.89 267.875 232.17Z" fill="#68E1FD"/>
<path d="M204.641 190.382C204.641 190.382 204.184 174.356 213.654 173.442" stroke="#24285B" stroke-width="1.015" stroke-linecap="round" stroke-linejoin="round"/>
<path d="M198.794 186.302C198.794 186.302 203.22 170.894 212.517 172.894" stroke="#24285B" stroke-width="1.015" stroke-linecap="round" stroke-linejoin="round"/>
<path d="M174.414 123.768H150.348C143.397 123.768 137.762 129.403 137.762 136.354V160.42C137.762 167.371 143.397 173.006 150.348 173.006H174.414C181.365 173.006 187 167.371 187 160.42V136.354C187 129.403 181.365 123.768 174.414 123.768Z" fill="#24285B"/>
<path d="M292.885 115.009H310.657" stroke="#24285B" stroke-width="0.76125" stroke-miterlimit="10"/>
<path d="M305.319 118.378V105.894C305.319 105.894 301.502 103.762 302.213 101.367C302.923 98.9716 306.882 101.621 305.319 105.894C305.319 105.894 306.882 102.341 308.435 103.052C309.988 103.762 308.891 105.894 305.582 105.894" stroke="#24285B" stroke-width="0.76125" stroke-miterlimit="10"/>
<path d="M176.962 190.382H147.588V206.145H176.962V190.382Z" fill="#68E1FD"/>
<path d="M152.409 146.808L161.067 158.116L173.561 137.45" stroke="white" stroke-width="5.075" stroke-linecap="round" stroke-linejoin="round"/>
<path d="M160.174 243.731C163.991 243.731 167.086 240.636 167.086 236.819C167.086 233.001 163.991 229.907 160.174 229.907C156.356 229.907 153.261 233.001 153.261 236.819C153.261 240.636 156.356 243.731 160.174 243.731Z" fill="#C1C1C1"/>
<path d="M139.904 60.8989H179.113" stroke="#C1C1C1" stroke-width="1.015" stroke-miterlimit="10"/>
</svg>
