<svg width="54" height="54" viewBox="0 0 54 54" fill="none" xmlns="http://www.w3.org/2000/svg">
<path d="M11.25 28.7091C11.25 25.6542 11.25 24.1267 11.8675 22.784C12.4851 21.4413 13.6448 20.4473 15.9643 18.4591L18.2143 16.5306C22.4068 12.937 24.503 11.1403 27 11.1403C29.497 11.1403 31.5932 12.937 35.7857 16.5306L38.0357 18.4591C40.3552 20.4473 41.5149 21.4413 42.1325 22.784C42.75 24.1267 42.75 25.6542 42.75 28.7091V38.25C42.75 42.4926 42.75 44.6139 41.432 45.932C40.114 47.25 37.9926 47.25 33.75 47.25H20.25C16.0074 47.25 13.886 47.25 12.568 45.932C11.25 44.6139 11.25 42.4926 11.25 38.25V28.7091Z" stroke="black" stroke-width="3"/>
<path d="M32.625 47.25V34.75C32.625 34.1977 32.1773 33.75 31.625 33.75H22.375C21.8227 33.75 21.375 34.1977 21.375 34.75V47.25" stroke="black" stroke-width="3" stroke-linecap="round" stroke-linejoin="round"/>
</svg>
