<svg width="23" height="26" viewBox="0 0 23 26" fill="none" xmlns="http://www.w3.org/2000/svg">
<path d="M11.1408 25L11.1408 24.25H11.1408L11.1408 25ZM1 19.5577L0.250085 19.5464L0.246583 19.7787L0.375004 19.9723L1 19.5577ZM21.2817 19.5577L21.9067 19.9723L22.0351 19.7787L22.0316 19.5464L21.2817 19.5577ZM11.1408 1.75C13.5323 1.75 15.4613 3.679 15.4613 6.07042H16.9613C16.9613 2.85058 14.3607 0.25 11.1408 0.25V1.75ZM15.4613 6.07042C15.4613 8.46184 13.5323 10.3908 11.1408 10.3908V11.8908C14.3607 11.8908 16.9613 9.29027 16.9613 6.07042H15.4613ZM11.1408 10.3908C8.74941 10.3908 6.82041 8.46184 6.82041 6.07042H5.32041C5.32041 9.29027 7.92099 11.8908 11.1408 11.8908V10.3908ZM6.82041 6.07042C6.82041 3.679 8.74941 1.75 11.1408 1.75V0.25C7.92099 0.25 5.32041 2.85058 5.32041 6.07042H6.82041ZM11.1408 24.25C7.3135 24.25 3.74067 22.3326 1.625 19.1431L0.375004 19.9723C2.76859 23.5807 6.81074 25.75 11.1408 25.75L11.1408 24.25ZM1.74991 19.569C1.75853 18.9976 2.04657 18.432 2.6434 17.8727C3.24339 17.3104 4.104 16.8068 5.11123 16.3856C7.12874 15.5417 9.5531 15.1021 11.1408 15.1021V13.6021C9.34831 13.6021 6.7276 14.0836 4.53243 15.0017C3.43332 15.4614 2.39569 16.0491 1.61769 16.7782C0.836533 17.5102 0.266823 18.4362 0.250085 19.5464L1.74991 19.569ZM11.1408 15.1021C12.7199 15.1021 15.1444 15.5416 17.1644 16.3857C18.1728 16.807 19.0351 17.3107 19.6364 17.8732C20.2347 18.4328 20.5232 18.9982 20.5318 19.569L22.0316 19.5464C22.0149 18.4355 21.4434 17.5094 20.6611 16.7777C19.8818 16.0488 18.8427 15.4612 17.7427 15.0016C15.5458 14.0837 12.9252 13.6021 11.1408 13.6021V15.1021ZM20.6567 19.1431C18.541 22.3326 14.9682 24.25 11.1408 24.25L11.1408 25.75C15.4709 25.75 19.5131 23.5807 21.9067 19.9723L20.6567 19.1431Z" fill="#ABB4BD"/>
</svg>
